<svg width="584" height="396" viewBox="0 0 584 396" fill="none" xmlns="http://www.w3.org/2000/svg">
<path d="M388.997 241.408C318.347 241.408 261.074 237.617 261.074 232.942C261.074 228.266 318.347 224.476 388.997 224.476C459.647 224.476 516.92 228.266 516.92 232.942C516.92 237.617 459.647 241.408 388.997 241.408Z" fill="#EBEBEB"/>
<path d="M426.321 79.2751C413.046 93.0843 373.164 154.543 370.057 156.379C370.057 156.379 370.057 196.575 392.269 188.548C414.481 180.522 434.842 108.408 439.189 85.4187C441.48 73.2807 437.165 68.0081 426.321 79.2751Z" fill="#D3766A"/>
<path d="M429.703 126.791L388.997 122.162C388.997 122.162 414.246 88.6668 427.294 76.7093C440.899 64.2497 447.568 65.9994 441.26 89.6005C434.92 113.343 429.703 126.791 429.703 126.791Z" fill="#3895EA"/>
<path d="M431.617 104.618C432.064 105.741 432.35 106.922 432.464 108.125C431.044 106.163 430.16 103.864 429.899 101.456C430.625 102.419 431.204 103.485 431.617 104.618ZM408.753 105.536C409.873 105.088 411.052 104.803 412.253 104.689C410.294 106.11 407.998 106.995 405.591 107.254C406.554 106.527 407.619 105.947 408.753 105.536ZM414.819 121.37C415.298 120.263 415.932 119.23 416.702 118.302C416.521 119.493 416.173 120.653 415.666 121.746C415.202 122.86 414.573 123.897 413.799 124.822C413.974 123.629 414.318 122.467 414.819 121.37ZM438.702 70.3698C438.906 69.9382 439.11 69.5146 439.346 69.0909C439.625 69.0635 439.906 69.0635 440.185 69.0909C439.997 69.6636 439.785 70.2129 439.55 70.7621C439.078 71.8735 438.446 72.9098 437.674 73.8378C437.851 72.639 438.197 71.4713 438.702 70.3698ZM391.79 118.498L392.575 118.812C393.685 119.29 394.723 119.921 395.658 120.687C394.462 120.51 393.297 120.164 392.198 119.659C391.884 119.518 391.578 119.369 391.272 119.204L391.79 118.498ZM423.175 86.1641C424.282 86.6392 425.318 87.2678 426.25 88.0314C425.054 87.8598 423.888 87.5162 422.79 87.0114C421.681 86.5354 420.646 85.904 419.715 85.1362C420.917 85.3089 422.088 85.6551 423.19 86.1641H423.175ZM425.905 86.2347C425.951 86.2662 425.996 86.3002 426.038 86.3367H425.897C425.897 86.3367 425.921 86.2582 425.921 86.2347H425.905Z" fill="white"/>
<path d="M427.749 119.471C426.8 119.251 425.803 119.165 424.838 119.031L421.841 118.616C419.825 118.333 417.8 118.082 415.776 117.831C411.727 117.36 407.679 116.866 403.622 116.466C402.508 116.356 401.386 116.246 400.272 116.16C399.158 116.073 397.918 116.073 396.741 115.987C396.671 115.987 396.671 116.089 396.741 116.097C397.738 116.246 398.726 116.474 399.723 116.631C400.719 116.787 401.779 116.929 402.806 117.054C404.823 117.313 406.855 117.549 408.879 117.776C412.865 118.208 416.859 118.663 420.86 119.016L424.203 119.298C425.372 119.4 426.557 119.573 427.734 119.565C427.743 119.562 427.751 119.556 427.757 119.548C427.763 119.541 427.767 119.532 427.769 119.522C427.77 119.513 427.769 119.503 427.766 119.494C427.763 119.485 427.757 119.477 427.749 119.471Z" fill="#263238"/>
<path opacity="0.1" d="M409.954 124.547L429.695 126.791C429.695 126.791 434.913 113.343 441.26 89.6006C443.936 79.589 444.273 73.5082 442.735 70.7699L409.954 124.547Z" fill="black"/>
<path d="M418.412 210.509H480.326C480.836 208.517 481.33 206.586 481.825 204.625C482.39 202.404 482.947 200.239 483.48 198.128C483.598 197.658 483.723 197.187 483.841 196.724C484.249 195.108 484.649 193.538 485.042 192.016C485.277 191.082 485.512 190.164 485.74 189.254C485.967 188.344 486.211 187.418 486.438 186.532C486.501 186.296 486.556 186.061 486.619 185.833L486.807 185.049L487.042 184.131C487.129 183.809 487.207 183.495 487.286 183.181C487.443 182.585 487.592 181.997 487.733 181.424C487.953 180.577 488.164 179.745 488.368 178.937C488.455 178.584 488.549 178.231 488.635 177.885C488.784 177.32 488.925 176.771 489.059 176.23C489.153 175.869 489.239 175.516 489.326 175.171C489.692 173.748 490.032 172.414 490.346 171.169C490.432 170.839 490.51 170.518 490.597 170.204C490.73 169.663 490.863 169.145 490.989 168.635C491.078 168.321 491.156 168.015 491.224 167.717C491.499 166.65 491.75 165.677 491.962 164.821C492.025 164.594 492.08 164.374 492.135 164.162C492.276 163.597 492.409 163.095 492.519 162.648C492.566 162.468 492.605 162.295 492.652 162.138L492.778 161.644C492.778 161.534 492.833 161.424 492.856 161.33L492.966 160.906C492.966 160.838 492.982 160.775 493.013 160.718L493.155 160.161H432.888C432.888 160.161 430.903 167.003 427.726 178.034C427.082 180.278 426.384 182.742 425.639 185.276C423.528 192.636 421.064 201.22 418.412 210.509Z" fill="#37474F"/>
<path d="M470.189 210.509H471.758C474.049 201.026 476.269 191.524 478.419 182.004C478.942 179.687 479.465 177.37 479.989 175.053L480.13 174.402C480.132 174.379 480.127 174.356 480.114 174.337C480.101 174.319 480.082 174.305 480.06 174.299C480.038 174.294 480.015 174.296 479.994 174.306C479.974 174.316 479.958 174.333 479.949 174.354C479.949 174.425 479.91 174.496 479.887 174.566C479.191 177.056 478.498 179.549 477.807 182.044C475.155 191.506 472.616 200.995 470.189 210.509Z" fill="#263238"/>
<path d="M434.842 160.169L437.502 173.507L439.683 184.429L443.394 203.04L443.779 204.947L444.414 208.124L444.909 210.509H480.334C480.836 208.509 481.338 206.586 481.825 204.625C482.39 202.404 482.947 200.239 483.48 198.128C483.598 197.658 483.723 197.187 483.841 196.724C484.249 195.108 484.649 193.538 485.042 192.016C485.277 191.082 485.512 190.164 485.74 189.254C485.967 188.344 486.211 187.418 486.438 186.532C486.501 186.296 486.556 186.061 486.619 185.833L486.807 185.049L487.042 184.131C487.129 183.809 487.207 183.495 487.286 183.181C487.443 182.585 487.592 181.997 487.733 181.424C487.953 180.577 488.164 179.745 488.368 178.937C488.463 178.576 488.549 178.231 488.635 177.885C488.784 177.32 488.925 176.771 489.059 176.23C489.153 175.869 489.239 175.516 489.326 175.171C489.692 173.748 490.032 172.414 490.346 171.169C490.432 170.839 490.51 170.518 490.597 170.204C490.73 169.663 490.863 169.145 490.989 168.635C491.078 168.321 491.156 168.015 491.224 167.717C491.499 166.65 491.75 165.677 491.962 164.821C492.025 164.594 492.08 164.374 492.135 164.162C492.276 163.597 492.409 163.095 492.519 162.648C492.566 162.468 492.605 162.295 492.652 162.138L492.778 161.644C492.778 161.534 492.833 161.424 492.856 161.33L492.966 160.906C492.966 160.838 492.982 160.775 493.013 160.718L493.155 160.161L434.842 160.169Z" fill="#263238"/>
<path d="M434.834 160.145C434.834 160.475 435.086 164.068 435.666 169.56C435.831 171.13 436.027 172.919 436.255 174.802C436.608 177.775 437.039 181.079 437.588 184.523C438.514 190.572 439.723 197.171 441.292 203.621C441.849 205.974 442.461 208.242 443.112 210.494H520.906C519.988 198.638 519.149 187.913 518.482 179.462C517.548 167.568 516.913 160.122 516.913 160.122H446.345L434.834 160.145Z" fill="#37474F"/>
<path d="M434.999 167.293C435.085 170.078 435.203 172.856 435.384 175.626C435.572 178.631 435.847 181.628 436.239 184.625C436.239 184.735 436.239 184.845 436.278 184.955C436.644 187.763 437.065 190.565 437.541 193.358C437.989 195.963 438.326 198.772 439.471 201.204C439.907 202.137 440.526 202.972 441.292 203.66C441.993 204.301 442.851 204.745 443.779 204.947C443.931 204.985 444.086 205.011 444.242 205.025H444.375C444.347 205.041 444.323 205.066 444.308 205.095C444.293 205.124 444.286 205.157 444.289 205.19C444.289 206.123 444.289 207.073 444.399 207.999C444.399 208.038 444.399 208.077 444.399 208.116C444.493 208.901 444.642 209.725 444.791 210.525H446.125V210.478C445.89 209.599 445.693 208.713 445.474 207.826C445.254 206.939 444.94 206.037 444.728 205.119C444.717 205.085 444.695 205.055 444.666 205.033C445.512 205.073 446.351 204.854 447.069 204.404C447.787 203.953 448.351 203.294 448.683 202.514C449.018 201.321 449.039 200.062 448.746 198.858C448.502 197.289 448.267 195.672 448.024 194.08C447.569 191.153 446.98 188.258 446.455 185.347L446.219 184.021C445.176 178.097 444.085 172.173 442.775 166.304C442.728 166.061 442.673 165.818 442.618 165.575C442.563 165.331 442.32 165.457 442.335 165.614C442.375 166.006 442.414 166.398 442.461 166.799C442.691 169.053 442.953 171.297 443.245 173.531C443.622 176.159 443.881 178.803 444.25 181.432C444.375 182.326 444.501 183.221 444.634 184.115C445.238 188.438 445.866 192.746 446.604 197.069C446.949 199.07 448.173 202.655 445.317 203.275C444.657 203.422 443.967 203.336 443.363 203.032C442.092 202.266 441.141 201.064 440.688 199.65C439.981 197.295 439.47 194.886 439.158 192.448C438.687 189.832 438.268 187.193 437.902 184.531C437.431 181.23 436.94 177.932 436.427 174.637C436.171 172.958 435.909 171.279 435.643 169.6L435.266 167.246C435.258 167.081 434.999 167.128 434.999 167.293Z" fill="#263238"/>
<path d="M503.841 187.975C500.601 187.942 497.378 187.507 494.245 186.681C492.802 186.312 491.374 185.849 489.953 185.386C488.546 184.998 487.229 184.337 486.077 183.44C483.896 181.557 482.884 178.599 481.935 175.963C480.904 172.995 480.068 169.962 479.432 166.885C479.432 166.736 479.181 166.791 479.173 166.932C479.097 170.412 479.539 173.884 480.483 177.234C481.268 180.082 482.319 183.252 484.618 185.245C486.917 187.238 490.314 188.085 493.414 188.462C496.889 188.866 500.402 188.819 503.865 188.321C503.91 188.317 503.953 188.296 503.983 188.262C504.013 188.227 504.029 188.182 504.025 188.136C504.022 188.09 504.001 188.048 503.967 188.018C503.932 187.987 503.887 187.972 503.841 187.975Z" fill="#263238"/>
<path d="M509.247 166.979C509.42 171.331 509.603 175.688 509.796 180.051C510.241 190.204 510.73 200.357 511.264 210.509H512.723C512.053 200.336 511.35 190.167 510.612 180.004C510.293 175.657 509.964 171.313 509.624 166.971C509.623 166.921 509.602 166.874 509.566 166.839C509.53 166.805 509.481 166.786 509.431 166.787C509.382 166.788 509.334 166.809 509.299 166.845C509.265 166.881 509.246 166.929 509.247 166.979Z" fill="#263238"/>
<path d="M421.441 192.369L526.979 184.366C526.979 184.366 505.748 100.216 463.826 69.2792C453.108 61.3781 441.378 66.4467 436.098 72.3549C422.681 87.4037 421.127 192.032 421.441 192.369Z" fill="#3895EA"/>
<path d="M458.945 73.108C459.388 74.2297 459.673 75.4073 459.793 76.6073C459.07 75.6491 458.489 74.5922 458.066 73.4689C457.624 72.3472 457.338 71.1695 457.219 69.9695C457.939 70.9297 458.52 71.9862 458.945 73.108ZM470.401 118.506C470.852 119.627 471.135 120.809 471.24 122.013C469.827 120.048 468.945 117.75 468.682 115.344C469.403 116.311 469.981 117.375 470.401 118.506ZM508.109 137.972C508.556 139.095 508.841 140.276 508.956 141.479C507.536 139.517 506.652 137.218 506.391 134.81C507.105 135.781 507.683 136.845 508.109 137.972ZM477.674 166.65C478.129 167.767 478.415 168.947 478.521 170.149C477.108 168.184 476.227 165.886 475.963 163.48C476.683 164.449 477.259 165.516 477.674 166.65ZM431.617 104.602C432.064 105.725 432.35 106.906 432.464 108.11C431.044 106.147 430.16 103.849 429.899 101.44C430.626 102.408 431.206 103.479 431.617 104.618V104.602ZM450.401 161.683C450.857 162.801 451.145 163.98 451.256 165.182C450.535 164.225 449.956 163.168 449.538 162.044C449.091 160.923 448.806 159.745 448.69 158.544C449.409 159.502 449.985 160.56 450.401 161.683ZM488.431 102.468C488.878 103.588 489.164 104.767 489.278 105.968C487.856 104.007 486.974 101.707 486.72 99.2984C487.443 100.265 488.019 101.333 488.431 102.468ZM446.266 87.4036C447.385 86.9517 448.564 86.6662 449.765 86.5562C448.806 87.2732 447.749 87.8492 446.627 88.2667C445.506 88.7204 444.324 89.006 443.12 89.1141C444.08 88.3951 445.14 87.819 446.266 87.4036ZM434.308 125.23C435.428 124.78 436.606 124.494 437.808 124.382C436.851 125.103 435.793 125.679 434.669 126.093C433.55 126.546 432.372 126.834 431.17 126.948C432.129 126.236 433.186 125.668 434.308 125.261V125.23ZM431.099 170.439C432.22 169.992 433.398 169.707 434.599 169.592C433.642 170.314 432.584 170.893 431.46 171.31C430.339 171.756 429.161 172.041 427.961 172.158C428.923 171.451 429.979 170.884 431.099 170.471V170.439ZM506.226 166.72C507.346 166.272 508.524 165.987 509.725 165.873C507.767 167.294 505.47 168.179 503.064 168.438C504.032 167.728 505.097 167.16 506.226 166.752V166.72ZM479.07 137.689C480.19 137.24 481.369 136.952 482.57 136.834C481.611 137.556 480.554 138.137 479.431 138.56C478.31 139.003 477.132 139.288 475.932 139.408C476.892 138.696 477.949 138.126 479.07 137.713V137.689ZM438.702 70.3461C438.812 70.1107 438.922 69.8832 439.04 69.6557C439.424 69.3654 439.824 69.0829 440.256 68.8083C440.061 69.466 439.826 70.1107 439.55 70.7384C439.078 71.8499 438.446 72.8861 437.674 73.8141C437.853 72.6233 438.199 71.4637 438.702 70.3697V70.3461ZM469.545 94.7476C470.018 93.6371 470.65 92.6011 471.421 91.6719C471.043 94.0652 470.042 96.3168 468.517 98.1999C468.69 97.0052 469.036 95.8421 469.545 94.7476ZM442.311 187.591C442.785 186.482 443.413 185.447 444.179 184.515C444.005 185.709 443.662 186.871 443.159 187.967C442.712 188.999 442.134 189.97 441.44 190.855H441.315C441.496 189.726 441.831 188.628 442.311 187.591ZM452.331 132.911C452.808 131.803 453.439 130.767 454.206 129.835C453.816 132.224 452.819 134.471 451.311 136.363C451.485 135.17 451.828 134.007 452.331 132.911ZM524.217 174.606C524.264 174.77 524.311 174.935 524.366 175.092C524.264 175.202 524.17 175.32 524.076 175.429C524.107 175.16 524.154 174.893 524.217 174.629V174.606ZM492.833 153.672C493.309 152.566 493.94 151.533 494.708 150.604C494.329 152.995 493.327 155.243 491.805 157.124C491.992 155.938 492.346 154.783 492.856 153.696L492.833 153.672ZM486.101 183.88C486.577 182.771 487.208 181.735 487.976 180.804C487.587 183.196 486.587 185.448 485.073 187.34C485.257 186.152 485.611 184.998 486.124 183.911L486.101 183.88ZM433.32 147.536C434.428 148.014 435.463 148.646 436.395 149.412C435.202 149.235 434.039 148.889 432.943 148.384C431.83 147.91 430.792 147.279 429.86 146.509C431.066 146.688 432.239 147.042 433.343 147.56L433.32 147.536ZM516.567 152.119L516.967 153.201C516.121 152.793 515.33 152.279 514.613 151.671C515.287 151.759 515.95 151.917 516.591 152.142L516.567 152.119ZM462.758 178.262C463.868 178.734 464.903 179.363 465.834 180.129C464.638 179.954 463.473 179.611 462.374 179.109C461.266 178.628 460.23 177.995 459.298 177.226C460.506 177.404 461.68 177.761 462.782 178.285L462.758 178.262ZM510.879 185.261L511.42 185.519L509.576 185.661C508.806 185.272 508.084 184.792 507.426 184.233C508.629 184.417 509.799 184.771 510.902 185.284L510.879 185.261ZM492.393 120.742C493.499 121.225 494.533 121.856 495.469 122.617C493.077 122.231 490.826 121.234 488.933 119.722C490.139 119.899 491.312 120.25 492.417 120.765L492.393 120.742ZM465.34 150.793C466.449 151.271 467.485 151.905 468.415 152.676C466.022 152.291 463.77 151.291 461.88 149.773C463.085 149.953 464.258 150.304 465.363 150.816L465.34 150.793ZM451.217 109.483C452.323 109.964 453.358 110.595 454.292 111.358C451.901 110.979 449.651 109.981 447.764 108.463C448.975 108.64 450.154 108.992 451.264 109.506L451.217 109.483Z" fill="white"/>
<path d="M442.076 89.938C448.165 89.0357 454.347 76.7487 455.414 68.369C455.485 67.7884 445.999 49.6873 444.516 45.9134C444.21 45.1287 423.057 61.1035 423.057 61.1035C423.057 61.1035 428.549 68.1022 431.115 74.7165C431.295 75.2657 436.191 90.8011 442.076 89.938Z" fill="#D3766A"/>
<path d="M423.026 61.1034C423.026 61.1034 428.518 68.1022 431.091 74.7086C431.138 74.842 431.452 75.8149 431.97 77.2037C442.845 71.7114 447.278 61.9037 449.067 55.4306C447.011 51.3114 445.097 47.4433 444.485 45.9133C444.179 45.1365 423.026 61.1034 423.026 61.1034Z" fill="#263238"/>
<path d="M439.628 16.5138C445.819 23.6773 452.009 49.5147 448.471 57.4549C443.332 68.9574 429.64 75.8698 418.561 68.518C407.789 61.3859 400.319 27.569 404.768 19.8171C411.312 8.39309 430.495 5.93725 439.628 16.5138Z" fill="#D3766A"/>
<path d="M423.089 37.5022C423.873 37.565 424.658 37.5022 425.443 37.5022C426.275 37.6157 427.122 37.4501 427.851 37.0315C428.055 36.8549 428.194 36.6162 428.248 36.3524C428.302 36.0885 428.267 35.8143 428.149 35.5721C427.843 35.1296 427.424 34.7771 426.936 34.5508C426.447 34.3246 425.908 34.233 425.372 34.2853C424.272 34.2206 423.186 34.5674 422.328 35.2583C422.146 35.4294 422.017 35.6493 421.957 35.8915C421.896 36.1338 421.907 36.3884 421.987 36.6248C422.067 36.8613 422.214 37.0697 422.409 37.2253C422.604 37.3808 422.84 37.477 423.089 37.5022Z" fill="#263238"/>
<path d="M423.779 41.2919C423.779 41.2213 423.936 41.3469 423.951 41.4253C424.242 43.1907 424.877 45.1679 426.58 45.4347C426.635 45.4347 426.651 45.5289 426.58 45.5367C424.595 45.6465 423.779 43.0181 423.779 41.2919Z" fill="#263238"/>
<path d="M424.987 39.1421C427.773 38.3575 429.122 43.9989 426.557 44.7129C423.991 45.4269 422.657 39.7934 424.987 39.1421Z" fill="#263238"/>
<path d="M413.658 43.4653C413.658 43.4026 413.54 43.583 413.556 43.6537C414.026 45.3798 414.277 47.4433 412.842 48.3613C412.795 48.3613 412.842 48.479 412.881 48.4555C414.74 47.765 414.379 45.0346 413.658 43.4653Z" fill="#263238"/>
<path d="M411.665 42.0216C408.809 42.4767 409.931 48.1494 412.575 47.7257C415.219 47.302 414.058 41.6371 411.665 42.0216Z" fill="#263238"/>
<path d="M408.769 39.2285C409.49 38.8935 410.192 38.5189 410.872 38.1065C411.67 37.8119 412.346 37.2596 412.794 36.5373C412.893 36.2848 412.904 36.0069 412.828 35.747C412.751 35.4872 412.59 35.2601 412.371 35.1014C411.406 34.4737 410.291 34.7641 409.303 35.2505C408.295 35.7096 407.493 36.5258 407.051 37.5416C406.958 37.7805 406.937 38.0413 406.991 38.2918C407.045 38.5424 407.172 38.7716 407.354 38.9511C407.537 39.1306 407.769 39.2526 408.02 39.3019C408.272 39.3512 408.532 39.3257 408.769 39.2285Z" fill="#263238"/>
<path d="M429.617 56.3958C429.303 56.9058 429.02 57.5649 428.4 57.7689C427.746 57.91 427.07 57.91 426.415 57.7689C426.402 57.7676 426.389 57.7706 426.377 57.7774C426.366 57.7842 426.357 57.7944 426.352 57.8066C426.347 57.8189 426.345 57.8324 426.348 57.8454C426.351 57.8583 426.358 57.87 426.368 57.8787C426.699 58.1609 427.099 58.3485 427.527 58.4218C427.955 58.495 428.395 58.451 428.801 58.2946C429.135 58.1185 429.409 57.8468 429.588 57.5141C429.767 57.1815 429.842 56.803 429.805 56.4272C429.805 56.3252 429.664 56.3173 429.617 56.3958Z" fill="#263238"/>
<path d="M426.541 51.6174C426.261 52.412 425.82 53.1405 425.247 53.7574C424.673 54.3742 423.978 54.8664 423.206 55.2031C422.535 55.506 421.824 55.7121 421.095 55.8151C420.959 55.8458 420.82 55.8616 420.68 55.8622C420.546 55.8706 420.413 55.8706 420.279 55.8622C420.182 55.8681 420.086 55.8411 420.007 55.7856C419.927 55.73 419.868 55.6492 419.84 55.5562C419.836 55.4935 419.836 55.4306 419.84 55.3679V55.211C419.487 53.8771 419.126 51.8058 419.126 51.8058C418.695 52.1667 416.466 53.8928 416.333 53.1788C415.289 47.2942 414.136 40.7505 414.34 34.6698C414.34 34.6261 414.357 34.5842 414.388 34.5533C414.419 34.5224 414.461 34.505 414.505 34.505C414.548 34.505 414.59 34.5224 414.621 34.5533C414.652 34.5842 414.669 34.6261 414.669 34.6698C415.893 40.2876 416.121 46.0859 417.267 51.7508C418.034 51.1204 418.887 50.6026 419.801 50.213C420.005 50.213 420.421 54.2302 420.633 54.8108C420.631 54.8317 420.631 54.8527 420.633 54.8736C422.986 54.6225 424.493 53.5319 426.321 51.4998C426.439 51.3664 426.611 51.4527 426.541 51.6174Z" fill="#263238"/>
<path d="M421.723 54.9442C422.69 55.7241 423.841 56.2428 425.066 56.4506C425.736 56.544 426.419 56.4261 427.019 56.1132C428.322 55.4149 428.055 54.1282 427.537 53.0925C427.255 52.5466 426.91 52.0357 426.509 51.5703C425.315 53.1775 423.638 54.3599 421.723 54.9442Z" fill="#263238"/>
<path d="M425.066 56.4507C425.736 56.5441 426.419 56.4262 427.019 56.1133C428.322 55.415 428.055 54.1283 427.537 53.0926C426.078 53.6026 424.846 54.9757 425.066 56.4507Z" fill="#FF97B8"/>
<path d="M402.398 29.8758C413.383 34.4737 424.493 21.7551 424.493 21.7551C425.752 23.6854 427.6 25.1574 429.763 25.952C431.927 26.7466 434.289 26.8211 436.498 26.1646C436.498 26.1646 441.77 42.0687 446.07 41.1115C452.606 39.7149 449.993 17.071 447.035 13.1322C444.077 9.19344 438.271 9.20913 438.271 9.20913C438.271 9.20913 437.164 5.90591 432.472 3.65407C427.294 1.159 412.857 8.9816 412.857 8.9816C411.547 7.10232 409.813 5.557 407.796 4.47008C407.309 4.19645 406.772 4.0245 406.217 3.96464C405.661 3.90479 405.1 3.95828 404.566 4.12186C404.032 4.28545 403.536 4.55572 403.11 4.91633C402.683 5.27694 402.335 5.72037 402.084 6.21976C403.156 7.25081 403.98 8.51173 404.493 9.90744C406.259 14.521 402.359 15.3291 401.488 10.9902C401.11 9.37993 401.321 7.68734 402.084 6.21976C399.574 3.78746 396.239 3.52069 394.646 5.43515C391.72 8.94237 393.258 26.0626 402.398 29.8758Z" fill="#263238"/>
<path d="M429.342 50.0247C430.693 49.5914 431.896 48.7872 432.813 47.7038C433.73 46.6204 434.324 45.3013 434.528 43.8967C434.732 42.4921 434.538 41.0584 433.967 39.7589C433.396 38.4594 432.472 37.3463 431.3 36.5463C430.127 35.7464 428.754 35.2917 427.335 35.2341C425.917 35.1765 424.511 35.5183 423.278 36.2205C422.044 36.9228 421.033 37.9573 420.359 39.2062C419.684 40.4551 419.374 41.8683 419.464 43.2849C419.538 44.4352 419.873 45.5535 420.444 46.5549C421.015 47.5563 421.807 48.4144 422.759 49.0641C423.711 49.7137 424.799 50.1379 425.939 50.3044C427.08 50.4708 428.244 50.3752 429.342 50.0247ZM425.011 36.5686C425.52 36.4038 426.046 36.3011 426.58 36.2626C428.252 36.1439 429.907 36.6678 431.206 37.7274C432.506 38.787 433.352 40.3024 433.572 41.9644C433.792 43.6265 433.37 45.3099 432.391 46.6713C431.413 48.0326 429.951 48.9693 428.306 49.2902C426.66 49.6111 424.954 49.292 423.536 48.398C422.118 47.5041 421.094 46.1026 420.673 44.4796C420.253 42.8566 420.468 41.1343 421.274 39.6642C422.08 38.1941 423.416 37.0869 425.011 36.5686Z" fill="#3895EA"/>
<path d="M412.622 53.1945C415.337 52.1745 416.749 48.4868 415.76 44.6344C415.339 42.7913 414.348 41.1277 412.928 39.8796C412.354 39.3013 411.64 38.8817 410.856 38.662C410.071 38.4422 409.243 38.4298 408.453 38.6259C407.662 38.822 406.936 39.2199 406.345 39.7807C405.754 40.3415 405.319 41.0461 405.082 41.8255C404.417 43.5958 404.321 45.5295 404.807 47.357C405.811 51.4056 409.083 54.0968 412.104 53.3436C412.281 53.3095 412.454 53.2596 412.622 53.1945ZM408.377 39.7384L408.746 39.6286C409.38 39.5005 410.035 39.5271 410.657 39.706C411.278 39.8849 411.847 40.2109 412.316 40.6564C413.569 41.7687 414.444 43.2443 414.819 44.8776C415.69 48.3927 414.395 51.7508 411.908 52.3628C409.421 52.9748 406.706 50.621 405.835 47.1138C405.398 45.4948 405.481 43.7796 406.07 42.2099C406.26 41.6592 406.563 41.1545 406.961 40.7287C407.358 40.3028 407.841 39.9654 408.377 39.7384Z" fill="#3895EA"/>
<path d="M419.88 44.1009L420.366 43.2143C419.056 42.4846 416.2 41.7314 414.764 43.9989L415.627 44.5324C416.906 42.5003 419.762 44.0303 419.88 44.1009Z" fill="#3895EA"/>
<path d="M453.367 39.4717L454.151 38.844C453.853 38.4752 451.209 35.2348 448.926 35.3132C446.784 35.3917 433.712 39.2363 433.155 39.4324L433.445 40.4054C437.196 39.2912 447.302 36.3803 448.957 36.3254C450.479 36.2705 452.653 38.5772 453.367 39.4717Z" fill="#3895EA"/>
<path d="M443.269 39.6364C443.269 39.6364 445.38 29.5306 449.742 29.9621C454.104 30.3936 454.842 43.3947 451.35 46.7136C450.933 47.1699 450.428 47.537 449.866 47.793C449.303 48.049 448.695 48.1885 448.077 48.2032C447.459 48.2179 446.844 48.1074 446.27 47.8783C445.696 47.6493 445.174 47.3065 444.736 46.8705L443.269 39.6364Z" fill="#D3766A"/>
<path d="M449.86 33.6969C449.922 33.6577 449.977 33.744 449.93 33.7989C447.521 36.2155 447.153 39.5658 447.27 42.8141C447.678 41.3704 448.604 40.2719 450.487 40.6878C450.581 40.6878 450.558 40.8526 450.487 40.8761C449.906 40.9298 449.357 41.1636 448.915 41.5448C448.473 41.9259 448.162 42.4355 448.024 43.0024C447.793 43.9485 447.665 44.9164 447.639 45.8898C447.639 46.2115 447.09 46.2742 447.058 45.8898C447.062 45.8638 447.062 45.8373 447.058 45.8113C445.379 42.1864 446.038 35.7683 449.86 33.6969Z" fill="#263238"/>
<path d="M389.476 110.565C387.49 105.34 341.465 114.802 343.301 122.813C350.041 152.158 368.824 178.38 373.571 184.374C379.801 192.22 392.198 190.478 396.717 185.724C403.269 178.827 391.437 115.744 389.476 110.565Z" fill="#D3766A"/>
<path d="M392.716 124.971C393.739 127.783 394.55 130.668 395.141 133.602C395.808 136.505 396.388 139.423 396.859 142.358C397.79 148.294 398.314 154.287 398.428 160.294C398.515 163.652 398.428 167.003 398.428 170.361C398.428 170.439 398.303 170.431 398.303 170.361C398.303 167.387 398.122 164.39 397.879 161.424C397.636 158.458 397.338 155.437 396.953 152.464C396.208 146.618 395.384 140.781 394.325 134.983C394.032 133.356 393.726 131.734 393.407 130.118C393.07 128.439 392.685 126.768 392.465 125.065C392.465 124.94 392.662 124.83 392.716 124.971Z" fill="#263238"/>
<path d="M400.578 27.8594C400.881 31.8551 401.479 35.823 402.367 39.7306C402.516 40.3975 402.681 41.0801 402.845 41.7549C403.504 44.4383 404.289 47.1373 405.199 49.7344C405.408 50.3621 405.628 50.9819 405.858 51.5939C408.644 59.1184 412.323 65.5914 416.466 68.3376C417.518 69.0431 418.635 69.6473 419.801 70.1422C425.74 66.6785 430.699 61.7607 434.213 55.8516C437.727 49.9425 439.68 43.2364 439.887 36.3646L441.142 36.0194C440.946 35.7134 440.742 35.3995 440.546 35.07C440.35 34.7405 440.107 34.3246 439.895 33.9323C439.58 23.8307 435.5 14.2117 428.455 6.96515C418.593 4.31315 406.784 8.10284 401.818 16.7571C400.609 18.8991 400.24 22.932 400.578 27.8594Z" fill="#D3766A"/>
<path d="M421.253 35.4858C422.086 35.529 422.922 35.529 423.755 35.4858C424.721 35.4858 425.489 35.5564 426.313 34.9836C426.535 34.7959 426.687 34.5387 426.744 34.2537C426.801 33.9688 426.76 33.673 426.627 33.4144C426.023 32.3473 424.846 32.0727 423.685 32.0492C422.52 31.9802 421.37 32.3465 420.46 33.077C420.258 33.2559 420.113 33.4899 420.043 33.7503C419.973 34.0106 419.98 34.2858 420.064 34.5419C420.149 34.7981 420.306 35.024 420.517 35.1917C420.728 35.3594 420.984 35.4616 421.253 35.4858Z" fill="#263238"/>
<path d="M421.982 39.5423C421.982 39.4717 422.147 39.6051 422.162 39.6757C422.468 41.5509 423.143 43.6458 424.948 43.9283C425.003 43.9283 425.018 44.0303 424.948 44.0381C422.845 44.1166 421.982 41.3312 421.982 39.5423Z" fill="#263238"/>
<path d="M423.261 37.2276C426.211 36.4038 427.639 42.3669 424.909 43.1279C422.179 43.889 420.79 37.9181 423.261 37.2276Z" fill="#263238"/>
<path d="M411.257 41.802C411.257 41.7392 411.131 41.9275 411.155 42.006C411.657 43.8341 411.939 46.0154 410.37 47.0275C410.323 47.0275 410.37 47.153 410.409 47.1295C412.402 46.3527 412.026 43.4654 411.257 41.802Z" fill="#263238"/>
<path d="M409.146 40.272C406.125 40.7584 407.318 46.7686 410.119 46.3213C412.92 45.8741 411.68 39.864 409.146 40.272Z" fill="#263238"/>
<path d="M406.086 37.3141C406.871 36.9767 407.553 36.5294 408.307 36.1293C409.148 35.8205 409.864 35.2445 410.347 34.4894C410.45 34.2231 410.461 33.9301 410.381 33.6562C410.3 33.3823 410.131 33.1429 409.899 32.9752C408.872 32.3082 407.695 32.6142 406.651 33.1321C405.593 33.6211 404.755 34.4849 404.297 35.5565C404.208 35.8049 404.192 36.0735 404.251 36.3307C404.31 36.5879 404.441 36.8228 404.629 37.0077C404.818 37.1926 405.055 37.3197 405.313 37.374C405.571 37.4283 405.839 37.4075 406.086 37.3141Z" fill="#263238"/>
<path d="M428.165 55.5013C427.828 56.0348 427.53 56.7332 426.871 56.9528C426.181 57.1057 425.466 57.1057 424.776 56.9528C424.762 56.9524 424.748 56.956 424.736 56.9632C424.725 56.9705 424.715 56.981 424.709 56.9936C424.704 57.0061 424.702 57.0201 424.704 57.0338C424.706 57.0474 424.712 57.0602 424.721 57.0705C425.071 57.3703 425.496 57.5695 425.951 57.6469C426.405 57.7242 426.872 57.6769 427.302 57.5099C427.655 57.3223 427.944 57.0342 428.132 56.6822C428.321 56.3302 428.4 55.9301 428.361 55.5327C428.369 55.4229 428.22 55.4228 428.165 55.5013Z" fill="#263238"/>
<path d="M424.901 50.4328C424.608 51.2759 424.144 52.0492 423.538 52.7042C422.931 53.3591 422.196 53.8814 421.378 54.2382C420.667 54.5587 419.914 54.7754 419.142 54.8815C418.995 54.9148 418.845 54.9332 418.695 54.9365C418.556 54.9451 418.417 54.9451 418.279 54.9365C418.176 54.9431 418.073 54.915 417.988 54.8567C417.903 54.7984 417.839 54.7132 417.808 54.6148C417.8 54.5523 417.8 54.489 417.808 54.4265V54.2617C417.431 52.8494 417.023 50.6525 417.023 50.6525C416.568 51.0369 414.207 52.8651 414.073 52.1119C412.967 45.835 411.719 38.9382 411.955 32.4965C411.955 32.4507 411.973 32.4068 412.005 32.3745C412.038 32.3421 412.082 32.3239 412.127 32.3239C412.173 32.3239 412.217 32.3421 412.249 32.3745C412.282 32.4068 412.3 32.4507 412.3 32.4965C413.602 38.4439 413.869 44.5874 415.054 50.5426C415.894 49.8932 416.821 49.3649 417.808 48.9734C418.02 48.9734 418.467 53.226 418.687 53.8458C418.683 53.8666 418.683 53.8878 418.687 53.9086C421.143 53.6418 422.775 52.4963 424.705 50.3308C424.799 50.1739 424.979 50.2602 424.901 50.4328Z" fill="#263238"/>
<path d="M419.801 53.9634C420.826 54.7824 422.045 55.3229 423.34 55.5326C424.048 55.6343 424.771 55.5079 425.403 55.1717C426.792 54.4342 426.502 53.069 425.953 51.9783C425.657 51.3988 425.293 50.8563 424.87 50.362C423.608 52.0732 421.832 53.3353 419.801 53.9634Z" fill="#263238"/>
<path d="M399.338 27.4121C399.754 27.5848 400.17 27.7338 400.578 27.8594C411.814 31.3431 422.743 18.8049 422.743 18.8049C424.07 20.8559 426.025 22.4226 428.316 23.271C430.607 24.1195 433.111 24.2042 435.454 23.5126C436.672 27.1029 438.165 30.5943 439.918 33.9558C439.707 27.2839 437.852 20.7674 434.518 14.9845C431.184 9.20164 426.474 4.33135 420.805 0.805918C417.226 2.06178 413.744 3.5775 410.386 5.34098C408.995 3.3507 407.157 1.71416 405.019 0.56269C404.504 0.272498 403.935 0.0898276 403.347 0.0257471C402.76 -0.0383333 402.165 0.0175028 401.6 0.189875C401.034 0.362246 400.509 0.647569 400.057 1.02858C399.605 1.40959 399.235 1.87836 398.97 2.40652C400.102 3.50727 400.973 4.84781 401.52 6.32959C403.387 11.2099 399.26 12.0651 398.342 7.47513C397.936 5.76758 398.159 3.9711 398.97 2.41437C396.31 -0.151319 392.779 -0.43378 391.123 1.62975C388.032 5.25466 389.648 23.3714 399.338 27.4121Z" fill="#263238"/>
<path d="M420.295 34.9445C421.601 33.8563 423.22 33.2131 424.917 33.1085C425.427 33.0754 425.94 33.0938 426.447 33.1634C427.718 33.3278 428.932 33.7948 429.986 34.5252C431.04 35.2556 431.903 36.2281 432.504 37.3611C432.677 37.6779 432.824 38.0086 432.943 38.3497C433.216 39.0745 433.377 39.8363 433.422 40.6094C433.531 42.3899 433.046 44.1563 432.042 45.6306C431.037 47.105 429.572 48.2036 427.875 48.7537C427.238 48.9539 426.579 49.0776 425.913 49.1224H425.411C423.487 49.1261 421.626 48.4402 420.165 47.1893C418.704 45.9383 417.74 44.2052 417.447 42.3041C417.447 42.0766 417.392 41.8491 417.376 41.6137C417.361 41.3783 417.376 41.2685 417.376 41.1037C417.379 39.9254 417.642 38.7622 418.147 37.6975C418.651 36.6327 419.385 35.6926 420.295 34.9445ZM425.85 48.0475C427.537 47.9395 429.127 47.2206 430.322 46.0252C431.517 44.8298 432.236 43.24 432.344 41.553C432.451 39.8661 431.941 38.1977 430.907 36.86C429.874 35.5224 428.389 34.6071 426.729 34.2854C426.153 34.1737 425.565 34.1368 424.979 34.1755C424.403 34.2131 423.834 34.3212 423.285 34.4972C422.584 34.7224 421.924 35.0589 421.331 35.4937C420.111 36.3767 419.212 37.6321 418.768 39.0708C418.324 40.5095 418.36 42.0535 418.87 43.4701C419.38 44.8867 420.336 46.0992 421.595 46.9248C422.855 47.7504 424.348 48.1445 425.85 48.0475Z" fill="#3895EA"/>
<path d="M402.226 40.068L402.367 39.7306C402.848 38.6275 403.674 37.7104 404.721 37.1179C405.059 36.9298 405.421 36.7874 405.796 36.6942C406.343 36.5611 406.909 36.5292 407.467 36.6C408.605 36.7591 409.671 37.2473 410.535 38.0045C411.184 38.5571 411.745 39.2053 412.198 39.9268C412.544 40.4614 412.836 41.0291 413.069 41.6215C413.229 42.0035 413.36 42.3969 413.462 42.7985C413.49 42.8781 413.513 42.9593 413.532 43.0417C413.997 44.8208 413.948 46.6953 413.391 48.4477C413.159 49.2592 412.749 50.0089 412.191 50.6426C411.633 51.2763 410.942 51.7782 410.166 52.1118C410.001 52.1746 409.837 52.2217 409.664 52.2687C409.014 52.4162 408.342 52.4325 407.686 52.3166C407.029 52.2008 406.403 51.9551 405.843 51.594C403.845 50.2879 402.437 48.2519 401.92 45.9212C401.408 43.9861 401.515 41.9392 402.226 40.068ZM403.011 45.6623C403.367 47.1927 404.129 48.599 405.215 49.7344C405.727 50.3306 406.386 50.7821 407.127 51.0437C407.868 51.3053 408.664 51.3679 409.437 51.2252C412.073 50.574 413.446 47.0197 412.52 43.3006C412.124 41.5715 411.2 40.0085 409.876 38.8283C409.377 38.3568 408.773 38.0117 408.114 37.822C407.454 37.6322 406.759 37.6033 406.086 37.7377C405.956 37.7687 405.827 37.808 405.702 37.8554C405.134 38.0976 404.623 38.4558 404.201 38.9071C403.779 39.3584 403.457 39.8928 403.254 40.476C403.086 40.8887 402.96 41.3172 402.877 41.7549C402.627 43.0493 402.661 44.3828 402.979 45.6623H403.011Z" fill="#3895EA"/>
<path d="M417.855 42.4767L418.365 41.5352C416.976 40.7506 413.948 39.966 412.433 42.3983L413.343 42.9632C414.701 40.782 417.722 42.4061 417.855 42.4767Z" fill="#3895EA"/>
<path d="M431.923 37.5337L432.229 38.5615L432.943 38.3497C434.709 37.8318 437.314 37.0786 439.911 36.3568L441.166 36.0115C440.97 35.7055 440.766 35.3917 440.57 35.0621L439.934 35.2426C436.796 36.1057 433.759 36.9923 432.504 37.3611L431.923 37.5337Z" fill="#3895EA"/>
<path d="M385.2 124.714L374.809 122.425L384.872 76.7339L395.262 79.0222L385.2 124.714Z" fill="#EBEBEB"/>
<path d="M346.392 131.985C346.392 131.985 335.157 113.516 349.146 95.8932C354.905 88.6434 368.495 75.6423 396.066 77.4548C402.61 77.8863 411.625 83.1354 400.688 86.3131C392.92 88.5728 387.31 87.6548 383.026 89.7889C383.026 89.7889 393.704 97.8312 393.014 104.367C392.708 107.286 392.48 113.665 390.794 119.738C390.794 119.738 388.581 121.307 386.784 121.04C386.784 121.04 381.943 135.006 364.533 139.298L346.392 131.985Z" fill="#D3766A"/>
<path d="M355.055 93.5237C359.558 91.727 369.178 88.0863 378.083 87.8353C387.977 87.5607 407.114 89.7026 407.232 97.0074C407.326 102.366 399.95 102.186 399.95 102.186C399.95 102.186 407.671 104.736 406.69 109.593C405.804 114.018 400.107 113.516 400.107 113.516C400.107 113.516 404.525 115.869 402.846 119.965C400.829 124.893 391.908 119.181 385.584 122.382C384.125 123.135 355.055 93.5237 355.055 93.5237Z" fill="#D3766A"/>
<path d="M376.647 98.3333C381.159 97.3447 391.994 97.7213 399.856 102.013C400.037 102.107 400.06 102.296 399.856 102.241C392.302 100.038 384.509 98.7572 376.647 98.4274C376.577 98.4274 376.577 98.3882 376.647 98.3333Z" fill="#263238"/>
<path d="M377.196 108.314C381.182 107.858 392.332 108.745 400.146 113.366C400.327 113.468 400.335 113.657 400.146 113.594C392.712 111.003 385.007 109.263 377.181 108.408C377.168 108.406 377.157 108.399 377.15 108.388C377.142 108.378 377.139 108.365 377.142 108.353C377.144 108.34 377.151 108.329 377.161 108.322C377.171 108.314 377.184 108.311 377.196 108.314Z" fill="#263238"/>
<path d="M361.136 140.499C365.13 139.551 368.985 138.092 372.607 136.16C376.254 134.186 379.481 131.521 382.108 128.313C382.893 127.333 383.678 126.313 384.36 125.269C385.043 124.226 385.796 123.041 386.604 122.005C386.667 121.927 386.816 122.005 386.769 122.076C385.86 124.254 384.741 126.337 383.427 128.298C382.249 130.131 380.841 131.805 379.237 133.28C376.071 136.097 372.319 138.177 368.252 139.369C365.943 140.012 363.579 140.44 361.191 140.648C361.073 140.679 361.026 140.522 361.136 140.499Z" fill="#263238"/>
<path d="M475.665 81.3935C495.877 108.533 529.608 179.266 534.566 189.67C537.932 196.732 501.032 215.327 499.471 210.196C497.462 203.621 464.469 116.827 459.848 85.1832C457.321 67.8354 468.674 72.0017 475.665 81.3935Z" fill="#D3766A"/>
<path d="M498.474 206.665C499.329 213.059 503.676 225.943 506.909 227.912C510.141 229.882 527.128 229.481 535.688 229.481C544.248 229.481 545.888 227.088 545.786 224.146C545.684 221.204 527.685 220.639 527.685 220.639C527.685 220.639 551.679 227.481 557.712 228.634C563.746 229.787 577.642 233.263 579.682 228.265C580.584 226.006 576.779 223.722 576.779 223.722C576.779 223.722 582.608 225.425 583.542 222.53C584.593 219.226 579.956 217.414 579.956 217.414C579.956 217.414 583.605 218.144 583.691 215.453C583.848 209.411 561.031 206.461 561.031 206.461C561.031 206.461 578.497 214.966 579.077 210.054C579.862 203.267 544.052 195.821 540.325 192.863C537.614 190.603 535.077 188.14 532.738 185.496L498.474 206.665Z" fill="#D3766A"/>
<path d="M545.661 225.605C545.721 225.189 545.682 224.763 545.545 224.365C545.409 223.967 545.179 223.606 544.876 223.314C544.261 222.751 543.555 222.295 542.789 221.965C541.206 221.292 539.565 220.767 537.885 220.396C534.511 219.54 531.051 218.936 527.607 218.042C531.157 217.988 534.701 218.384 538.152 219.219C539.916 219.623 541.614 220.273 543.197 221.149C544.017 221.599 544.735 222.214 545.308 222.953C545.589 223.328 545.77 223.769 545.831 224.233C545.893 224.698 545.834 225.17 545.661 225.605Z" fill="#263238"/>
<path d="M576.724 223.691C574.252 223.087 571.82 222.396 569.396 221.69C566.971 220.984 564.555 220.247 562.138 219.517L554.912 217.257C552.503 216.473 550.094 215.751 547.662 215.021C550.187 215.299 552.69 215.747 555.155 216.363C557.634 216.928 560.067 217.634 562.491 218.371C564.915 219.109 567.316 219.941 569.686 220.819C572.055 221.698 574.448 222.624 576.724 223.691Z" fill="#263238"/>
<path d="M553.483 209.019C555.811 209.165 558.124 209.485 560.404 209.976C562.691 210.431 564.952 211.012 567.175 211.718C569.403 212.409 571.591 213.226 573.726 214.166C575.87 215.082 577.944 216.152 579.933 217.367C577.728 216.582 575.578 215.759 573.389 215.013C571.2 214.268 569.019 213.53 566.814 212.855C564.609 212.181 562.404 211.514 560.184 210.863C557.963 210.211 555.735 209.646 553.483 209.019Z" fill="#263238"/>
<path d="M557.014 203.307C560.763 203.608 564.456 204.4 567.999 205.66C571.576 206.845 574.982 208.497 578.128 210.572C574.582 209.309 571.129 207.975 567.607 206.798C564.084 205.621 560.592 204.46 557.014 203.307Z" fill="#263238"/>
<path d="M467.074 127.913L508.031 126.783C508.031 126.783 485.709 91.2561 473.751 78.2237C461.268 64.6499 454.473 65.819 458.734 89.8673C463.025 114.081 467.074 127.913 467.074 127.913Z" fill="#3895EA"/>
<path d="M492.417 120.765C493.522 121.248 494.557 121.879 495.492 122.641C493.101 122.254 490.85 121.257 488.957 119.745C490.153 119.917 491.318 120.261 492.417 120.765ZM469.545 94.7476C470.018 93.6371 470.65 92.6011 471.42 91.6719C471.043 94.0652 470.042 96.3168 468.517 98.1999C468.69 97.0052 469.036 95.8421 469.545 94.7476ZM488.431 102.468C488.878 103.588 489.164 104.767 489.278 105.968C487.856 104.007 486.974 101.707 486.72 99.2984C487.443 100.265 488.019 101.333 488.431 102.468ZM470.385 118.506C470.836 119.627 471.119 120.809 471.224 122.013C469.811 120.048 468.93 117.75 468.667 115.344C469.392 116.31 469.976 117.374 470.401 118.506H470.385ZM458.38 71.8604C458.576 72.2684 458.757 72.6843 458.929 73.108C459.372 74.2297 459.657 75.4073 459.777 76.6074C459.054 75.6491 458.473 74.5922 458.051 73.4689C458.011 73.3669 457.98 73.2727 457.949 73.1707C458.061 72.7222 458.21 72.2839 458.396 71.8604H458.38Z" fill="white"/>
<path d="M469.639 120.789C470.612 120.648 471.609 120.648 472.582 120.601L475.603 120.436C477.632 120.336 479.669 120.255 481.715 120.193C485.795 120.067 489.867 119.926 493.939 119.871C495.061 119.871 496.183 119.871 497.305 119.871C498.427 119.871 499.659 119.989 500.836 119.996C500.906 119.996 500.898 120.106 500.836 120.106C499.831 120.169 498.827 120.318 497.815 120.381C496.803 120.444 495.751 120.506 494.716 120.546C492.676 120.624 490.636 120.695 488.596 120.742C484.586 120.836 480.569 120.946 476.56 120.954H473.155C471.985 120.954 470.801 121.016 469.624 120.914C469.592 120.891 469.577 120.797 469.639 120.789Z" fill="#263238"/>
<path d="M459.134 101.276C459.134 101.197 459.228 101.15 459.267 101.229C460.027 102.628 460.677 104.084 461.213 105.583C461.072 104.869 460.907 104.155 460.774 103.433C460.326 101.127 459.918 98.8042 459.463 96.4974C459.468 96.4835 459.477 96.4716 459.489 96.4631C459.501 96.4546 459.515 96.45 459.53 96.45C459.545 96.45 459.559 96.4546 459.571 96.4631C459.583 96.4716 459.592 96.4835 459.597 96.4974C460.656 100.468 461.888 104.398 462.829 108.4C463.771 112.402 464.72 116.403 465.599 120.42C466.078 122.641 466.509 125.41 466.996 127.623C468.18 127.764 469.702 127.623 470.981 127.788C471.091 127.788 471.06 127.984 470.981 127.984C469.632 128.023 468.023 128.329 466.603 128.243C466.423 128.243 462.986 113.971 461.558 107.137C460.679 105.191 459.863 103.245 459.134 101.276Z" fill="#263238"/>
<path d="M430.001 79.0868C430.574 80.962 431.225 82.8137 431.97 84.6261C432.593 86.259 433.357 87.8342 434.254 89.3338C435.948 92.0093 438.553 94.2219 441.856 94.2141C444.995 94.2141 447.867 92.3938 449.875 90.0713C452.072 87.537 453.531 84.3594 454.842 81.2994C455.626 79.4085 456.411 77.4783 457.039 75.5246C457.36 74.536 457.698 73.5474 457.98 72.5431C458.263 71.5388 458.506 70.5266 458.851 69.5459C458.851 69.4674 459.024 69.4753 459 69.5459C458.42 71.8056 456.733 78.9612 456.058 80.7815C454.818 84.1161 453.422 87.5606 451.185 90.3695C449.067 93.0215 446.188 95.0301 442.743 95.3596C439.299 95.6892 436.348 93.8767 434.45 91.1463C433.333 89.4263 432.462 87.5593 431.86 85.599C431.131 83.4492 430.519 81.2444 429.962 79.0397C429.93 79.0711 430.001 79.0632 430.001 79.0868Z" fill="#263238"/>
<path d="M301.434 231.38H357.699L360.21 181.918H301.434V231.38Z" fill="#DBDBDB"/>
<path d="M301.434 181.918L281.222 156.614L265.138 181.918L267.649 231.38H301.434V181.918Z" fill="#C7C7C7"/>
<path d="M340.571 148.58H280.509L258.846 183.919H265.821L280.509 159.455L297.448 186.838H365.168L340.571 148.58Z" fill="#A6A6A6"/>
<path d="M333.611 159.761H346.526L353.415 168.015H338.507L333.611 159.761Z" fill="#C7C7C7"/>
<path d="M343.395 166.603V176.653H350.583V166.603L346.989 162.107L343.395 166.603Z" fill="#DBDBDB"/>
<path d="M343.395 166.595H337.746L343.395 176.653V166.595Z" fill="#C7C7C7"/>
<path d="M345.129 166.759H349.217V173.656H345.129V166.759Z" fill="#FBFAFF"/>
<path d="M347.397 167.238H348.715V169.459H347.397V167.238Z" fill="#EBEBEB"/>
<path d="M345.639 167.238H346.957V169.459H345.639V167.238Z" fill="#EBEBEB"/>
<path d="M347.397 169.859H348.715V173.146H347.397V169.859Z" fill="#EBEBEB"/>
<path d="M345.639 169.859H346.957V173.146H345.639V169.859Z" fill="#EBEBEB"/>
<path d="M301.991 159.761H314.906L321.371 168.015H306.919L301.991 159.761Z" fill="#C7C7C7"/>
<path d="M311.775 166.603V176.653H318.962V166.603L315.369 162.107L311.775 166.603Z" fill="#DBDBDB"/>
<path d="M311.775 166.595H306.118L311.775 176.653V166.595Z" fill="#C7C7C7"/>
<path d="M313.51 166.759H317.597V173.656H313.51V166.759Z" fill="#FBFAFF"/>
<path d="M315.777 167.238H317.095V169.459H315.777V167.238Z" fill="#EBEBEB"/>
<path d="M314.011 167.238H315.33V169.459H314.011V167.238Z" fill="#EBEBEB"/>
<path d="M315.777 169.859H317.095V173.146H315.777V169.859Z" fill="#EBEBEB"/>
<path d="M314.011 169.859H315.33V173.146H314.011V169.859Z" fill="#EBEBEB"/>
<path d="M291.281 147.152H298.468V156.614H291.281V147.152Z" fill="#DBDBDB"/>
<path d="M291.281 147.152H285.632V148.674L291.281 156.614V147.152Z" fill="#C7C7C7"/>
<path d="M291.282 143.935H299.277V147.152H291.282V143.935Z" fill="#C7C7C7"/>
<path d="M285.012 143.935H291.281V147.152H285.012V143.935Z" fill="#A6A6A6"/>
<path d="M342.854 190.886H351.751V205.912H342.854V190.886Z" fill="#FBFAFF"/>
<path d="M347.789 191.93H350.653V196.771H347.789V191.93Z" fill="#EBEBEB"/>
<path d="M343.952 191.93H346.816V196.771H343.952V191.93Z" fill="#EBEBEB"/>
<path d="M347.789 197.642H350.653V204.813H347.789V197.642Z" fill="#EBEBEB"/>
<path d="M343.952 197.642H346.816V204.813H343.952V197.642Z" fill="#EBEBEB"/>
<path d="M309.806 190.886H318.703V205.912H309.806V190.886Z" fill="#FBFAFF"/>
<path d="M314.741 191.93H317.605V196.771H314.741V191.93Z" fill="#EBEBEB"/>
<path d="M310.904 191.93H313.768V196.771H310.904V191.93Z" fill="#EBEBEB"/>
<path d="M314.741 197.642H317.605V204.813H314.741V197.642Z" fill="#EBEBEB"/>
<path d="M310.904 197.642H313.768V204.813H310.904V197.642Z" fill="#EBEBEB"/>
<path d="M342.854 211.765H351.751V226.79H342.854V211.765Z" fill="#FBFAFF"/>
<path d="M347.789 212.808H350.653V217.65H347.789V212.808Z" fill="#EBEBEB"/>
<path d="M343.952 212.808H346.816V217.65H343.952V212.808Z" fill="#EBEBEB"/>
<path d="M347.789 218.52H350.653V225.692H347.789V218.52Z" fill="#EBEBEB"/>
<path d="M343.952 218.52H346.816V225.692H343.952V218.52Z" fill="#EBEBEB"/>
<path d="M309.806 211.765H318.703V226.79H309.806V211.765Z" fill="#FBFAFF"/>
<path d="M314.741 212.808H317.605V217.65H314.741V212.808Z" fill="#EBEBEB"/>
<path d="M310.904 212.808H313.768V217.65H310.904V212.808Z" fill="#EBEBEB"/>
<path d="M314.741 218.52H317.605V225.692H314.741V218.52Z" fill="#EBEBEB"/>
<path d="M310.904 218.52H313.768V225.692H310.904V218.52Z" fill="#EBEBEB"/>
<path d="M326.377 190.886H335.274V205.912H326.377V190.886Z" fill="#FBFAFF"/>
<path d="M331.312 191.93H334.176V196.771H331.312V191.93Z" fill="#EBEBEB"/>
<path d="M327.468 191.93H330.332V196.771H327.468V191.93Z" fill="#EBEBEB"/>
<path d="M331.312 197.642H334.176V204.813H331.312V197.642Z" fill="#EBEBEB"/>
<path d="M327.468 197.642H330.332V204.813H327.468V197.642Z" fill="#EBEBEB"/>
<path d="M326.377 211.867H335.274V226.892H326.377V211.867Z" fill="#FBFAFF"/>
<path d="M331.312 212.903H334.176V217.744H331.312V212.903Z" fill="#EBEBEB"/>
<path d="M327.468 212.903H330.332V217.744H327.468V212.903Z" fill="#EBEBEB"/>
<path d="M331.312 218.622H334.176V225.794H331.312V218.622Z" fill="#EBEBEB"/>
<path d="M327.468 218.622H330.332V225.794H327.468V218.622Z" fill="#EBEBEB"/>
<path d="M285.444 205.912H276.546V190.886H285.444V205.912Z" fill="#FBFAFF"/>
<path d="M277.645 191.93H280.509V196.771H277.645V191.93Z" fill="#EBEBEB"/>
<path d="M281.49 191.93H284.354V196.771H281.49V191.93Z" fill="#EBEBEB"/>
<path d="M277.645 197.642H280.509V204.813H277.645V197.642Z" fill="#EBEBEB"/>
<path d="M281.49 197.642H284.354V204.813H281.49V197.642Z" fill="#EBEBEB"/>
<path d="M285.444 182.687H276.546V169.969H285.444V182.687Z" fill="#FBFAFF"/>
<path d="M277.645 171.004H280.509V175.845H277.645V171.004Z" fill="#EBEBEB"/>
<path d="M281.49 171.004H284.354V175.845H281.49V171.004Z" fill="#EBEBEB"/>
<path d="M277.645 176.771H280.509V181.612H277.645V176.771Z" fill="#EBEBEB"/>
<path d="M281.49 176.771H284.354V181.612H281.49V176.771Z" fill="#EBEBEB"/>
<path d="M286.71 231.472L275.921 231.523L275.829 211.931L286.617 211.881L286.71 231.472Z" fill="#FBFAFF"/>
<path d="M282.4 213.237L282.414 216.172L280.092 216.182L280.078 213.248L282.4 213.237Z" fill="#EBEBEB"/>
<path d="M285.435 213.221L285.449 216.156L283.127 216.167L283.113 213.232L285.435 213.221Z" fill="#EBEBEB"/>
<path d="M283.748 226.826L278.844 226.849L278.841 226.143L283.744 226.12L283.748 226.826Z" fill="#EBEBEB"/>
<path d="M280.948 211.741V214.676H278.626V211.741H280.948Z" fill="#EBEBEB"/>
<path d="M282.408 216.942L282.422 219.877L280.099 219.888L280.085 216.953L282.408 216.942Z" fill="#EBEBEB"/>
<path d="M285.466 216.919L285.48 219.853L283.158 219.864L283.144 216.93L285.466 216.919Z" fill="#EBEBEB"/>
<path d="M279.365 216.958L279.379 219.892L277.056 219.903L277.043 216.969L279.365 216.958Z" fill="#EBEBEB"/>
<path d="M282.424 220.655L282.438 223.59L280.115 223.601L280.101 220.666L282.424 220.655Z" fill="#EBEBEB"/>
<path d="M285.474 220.64L285.488 223.574L283.166 223.585L283.152 220.65L285.474 220.64Z" fill="#EBEBEB"/>
<path d="M279.381 220.671L279.395 223.605L277.072 223.616L277.058 220.682L279.381 220.671Z" fill="#EBEBEB"/>
<path d="M456.286 231.514H506.266L508.502 207.293H456.286V231.514Z" fill="#DBDBDB"/>
<path d="M456.301 207.261L438.349 184.79L424.053 207.261L426.29 231.482H456.301V207.261Z" fill="#C7C7C7"/>
<path d="M491.35 177.681H437.062L416.953 211.663H422.437L437.8 186.085L452.559 211.663H512.707L491.35 177.681Z" fill="#A6A6A6"/>
<path d="M492.959 216.284H500.867V227.583H492.959V216.284Z" fill="#FBFAFF"/>
<path d="M497.352 217.21H499.894V221.51H497.352V217.21Z" fill="#DBDBDB"/>
<path d="M493.939 217.21H496.481V221.51H493.939V217.21Z" fill="#DBDBDB"/>
<path d="M497.352 222.326H499.894V226.625H497.352V222.326Z" fill="#DBDBDB"/>
<path d="M493.939 222.326H496.481V226.625H493.939V222.326Z" fill="#DBDBDB"/>
<path d="M463.912 216.284H471.821V227.583H463.912V216.284Z" fill="#FBFAFF"/>
<path d="M468.306 217.21H470.848V221.51H468.306V217.21Z" fill="#DBDBDB"/>
<path d="M464.893 217.21H467.435V221.51H464.893V217.21Z" fill="#DBDBDB"/>
<path d="M468.306 222.326H470.848V226.625H468.306V222.326Z" fill="#DBDBDB"/>
<path d="M464.893 222.326H467.435V226.625H464.893V222.326Z" fill="#DBDBDB"/>
<path d="M478.388 215.68H487.105V231.514H478.388V215.68Z" fill="#FBFAFF"/>
<path d="M481.809 216.771H483.685V219.14H481.809V216.771Z" fill="#DBDBDB"/>
<path d="M479.345 216.771H481.221V219.14H479.345V216.771Z" fill="#DBDBDB"/>
<path d="M480.765 227.167H484.728V227.74H480.765V227.167Z" fill="#DBDBDB"/>
<path d="M484.272 216.771H486.148V219.14H484.272V216.771Z" fill="#DBDBDB"/>
<path d="M481.809 219.768H483.685V222.138H481.809V219.768Z" fill="#DBDBDB"/>
<path d="M479.345 219.768H481.221V222.138H479.345V219.768Z" fill="#DBDBDB"/>
<path d="M484.272 219.768H486.148V222.138H484.272V219.768Z" fill="#DBDBDB"/>
<path d="M481.809 222.765H483.685V225.135H481.809V222.765Z" fill="#DBDBDB"/>
<path d="M479.345 222.765H481.221V225.135H479.345V222.765Z" fill="#DBDBDB"/>
<path d="M484.272 222.765H486.148V225.135H484.272V222.765Z" fill="#DBDBDB"/>
<path d="M479.863 176.324H486.25V184.727H479.863V176.324Z" fill="#DBDBDB"/>
<path d="M479.863 176.324H474.842V177.674L479.863 184.727V176.324Z" fill="#C7C7C7"/>
<path d="M479.863 173.46H486.964V176.316H479.863V173.46Z" fill="#C7C7C7"/>
<path d="M474.293 173.46H479.863V176.316H474.293V173.46Z" fill="#A6A6A6"/>
<path d="M436.529 231.521H420.319L418.773 214.817H436.529V231.521Z" fill="#C7C7C7"/>
<path d="M436.529 214.817L444.54 211.2L444.36 231.521H436.529V214.817Z" fill="#DBDBDB"/>
<path d="M424.116 219.14H430.935V231.514H424.116V219.14Z" fill="#FBFAFF"/>
<path d="M426.792 219.988H428.259V221.839H426.792V219.988Z" fill="#DBDBDB"/>
<path d="M424.87 219.988H426.337V221.839H424.87V219.988Z" fill="#DBDBDB"/>
<path d="M425.976 227.284H429.075V227.732H425.976V227.284Z" fill="#DBDBDB"/>
<path d="M428.714 219.988H430.181V221.839H428.714V219.988Z" fill="#DBDBDB"/>
<path d="M445.764 210.368H422.21L414.599 216.159H437.212L445.764 210.368Z" fill="#A6A6A6"/>
<path d="M437.212 216.159H445.764V210.368L437.212 216.159Z" fill="#C7C7C7"/>
<path d="M442.272 201.902C442.272 202.702 442.035 203.483 441.591 204.148C441.147 204.813 440.515 205.331 439.776 205.636C439.037 205.942 438.225 206.021 437.44 205.865C436.656 205.708 435.936 205.323 435.372 204.757C434.807 204.191 434.423 203.47 434.268 202.686C434.113 201.901 434.194 201.089 434.501 200.351C434.808 199.612 435.327 198.982 435.992 198.539C436.658 198.096 437.44 197.86 438.24 197.862C439.31 197.864 440.336 198.29 441.092 199.048C441.848 199.805 442.272 200.832 442.272 201.902Z" fill="#FBFAFF"/>
<path d="M441.37 201.902C441.37 202.735 441.039 203.533 440.451 204.121C439.862 204.71 439.064 205.041 438.232 205.041C437.967 205.043 437.703 205.008 437.447 204.939C436.716 204.74 436.082 204.284 435.661 203.655C435.24 203.025 435.06 202.265 435.156 201.514C435.252 200.763 435.615 200.071 436.181 199.567C436.746 199.063 437.474 198.781 438.232 198.772C438.497 198.77 438.76 198.805 439.016 198.874C439.381 198.962 439.725 199.122 440.028 199.344C440.441 199.632 440.778 200.015 441.011 200.46C441.244 200.905 441.368 201.4 441.37 201.902Z" fill="#C7C7C7"/>
<path d="M438.671 205.59H437.8V198.152H438.671V205.59Z" fill="#FBFAFF"/>
<path d="M434.512 202.302V201.432H441.951V202.302H434.512Z" fill="#FBFAFF"/>
<path d="M413.43 231.521H438.687L440.413 212.84H413.43V231.521Z" fill="#3895EA"/>
<path opacity="0.2" d="M413.43 231.521H438.687L440.413 212.84H413.43V231.521Z" fill="black"/>
<path d="M413.43 212.84L399.582 195.5L388.558 212.84L390.276 231.521H413.43V212.84Z" fill="#3895EA"/>
<path d="M411.759 215.123H446.031L425.183 188.909H399.44L383.968 215.123H387.899L399.44 197.163L411.759 215.123Z" fill="#3895EA"/>
<path opacity="0.4" d="M411.759 215.123H446.031L425.183 188.909H399.44L383.968 215.123H387.899L399.44 197.163L411.759 215.123Z" fill="black"/>
<path d="M377.173 165.724H384.313V175.123H377.173V165.724Z" fill="#3895EA"/>
<path opacity="0.2" d="M377.173 165.724H384.313V175.123H377.173V165.724Z" fill="black"/>
<path d="M371.555 165.724H377.173V175.123H371.555V165.724Z" fill="#3895EA"/>
<path d="M377.173 162.523H385.113V165.716H377.173V162.523Z" fill="#3895EA"/>
<path opacity="0.5" d="M377.173 162.523H385.113V165.716H377.173V162.523Z" fill="black"/>
<path d="M370.943 162.523H377.173V165.716H370.943V162.523Z" fill="#3895EA"/>
<path opacity="0.4" d="M370.943 162.523H377.173V165.716H370.943V162.523Z" fill="black"/>
<path d="M352.081 231.498H407.985L410.488 204.405H352.081V231.498Z" fill="#3895EA"/>
<path opacity="0.2" d="M352.081 231.498H407.985L410.488 204.405H352.081V231.498Z" fill="black"/>
<path d="M352.081 204.405L332.003 179.258L316.012 204.405L318.515 231.498H352.081V204.405Z" fill="#3895EA"/>
<path d="M332.246 180.851L315.738 206.382H309.971L331.752 171.279H391.218L421.347 209.293H348.715L332.246 180.851Z" fill="#3895EA"/>
<path opacity="0.5" d="M332.246 180.851L315.738 206.382H309.971L331.752 171.279H391.218L421.347 209.293H348.715L332.246 180.851Z" fill="black"/>
<path d="M337.221 208.211H328.378V195.57H337.221V208.211Z" fill="#FBFAFF"/>
<path d="M329.469 196.598H332.317V201.408H329.469V196.598Z" fill="#3895EA"/>
<path d="M333.282 196.598H336.13V201.408H333.282V196.598Z" fill="#3895EA"/>
<path d="M329.469 202.326H332.317V207.136H329.469V202.326Z" fill="#3895EA"/>
<path d="M333.282 202.326H336.13V207.136H333.282V202.326Z" fill="#3895EA"/>
<path d="M393.108 214.456H401.951V227.096H393.108V214.456Z" fill="#FBFAFF"/>
<path d="M398.012 215.492H400.86V220.301H398.012V215.492Z" fill="#3895EA"/>
<path d="M394.191 215.492H397.04V220.301H394.191V215.492Z" fill="#3895EA"/>
<path d="M398.012 221.219H400.86V226.029H398.012V221.219Z" fill="#3895EA"/>
<path d="M394.191 221.219H397.04V226.029H394.191V221.219Z" fill="#3895EA"/>
<path d="M376.859 214.456H385.701V227.096H376.859V214.456Z" fill="#FBFAFF"/>
<path d="M381.771 215.492H384.619V220.301H381.771V215.492Z" fill="#3895EA"/>
<path d="M377.95 215.492H380.798V220.301H377.95V215.492Z" fill="#3895EA"/>
<path d="M381.771 221.219H384.619V226.029H381.771V221.219Z" fill="#3895EA"/>
<path d="M377.95 221.219H380.798V226.029H377.95V221.219Z" fill="#3895EA"/>
<path d="M360.617 214.456H369.46V227.096H360.617V214.456Z" fill="#FBFAFF"/>
<path d="M365.521 215.492H368.37V220.301H365.521V215.492Z" fill="#3895EA"/>
<path d="M361.708 215.492H364.557V220.301H361.708V215.492Z" fill="#3895EA"/>
<path d="M365.521 221.219H368.37V226.029H365.521V221.219Z" fill="#3895EA"/>
<path d="M361.708 221.219H364.557V226.029H361.708V221.219Z" fill="#3895EA"/>
<path d="M337.676 231.49H327.923V213.781H337.676V231.49Z" fill="#FBFAFF"/>
<path d="M331.744 215.005H333.846V217.657H331.744V215.005Z" fill="#3895EA"/>
<path d="M334.498 215.005H336.601V217.657H334.498V215.005Z" fill="#3895EA"/>
<path d="M335.016 227.277H330.583V226.633H335.016V227.277Z" fill="#3895EA"/>
<path d="M328.998 215.005H331.1V217.657H328.998V215.005Z" fill="#3895EA"/>
<path d="M331.744 218.356H333.846V221.008H331.744V218.356Z" fill="#3895EA"/>
<path d="M334.498 218.356H336.601V221.008H334.498V218.356Z" fill="#3895EA"/>
<path d="M328.998 218.356H331.1V221.008H328.998V218.356Z" fill="#3895EA"/>
<path d="M331.744 221.706H333.846V224.358H331.744V221.706Z" fill="#3895EA"/>
<path d="M334.498 221.706H336.601V224.358H334.498V221.706Z" fill="#3895EA"/>
<path d="M328.998 221.706H331.1V224.358H328.998V221.706Z" fill="#3895EA"/>
<path d="M368.197 180.38H381.033L387.632 188.619H373.101L368.197 180.38Z" fill="#3895EA"/>
<path opacity="0.4" d="M368.197 180.38H381.033L387.632 188.619H373.101L368.197 180.38Z" fill="black"/>
<path d="M377.919 187.175V197.163H385.066V187.175L381.489 182.711L377.919 187.175Z" fill="#3895EA"/>
<path opacity="0.2" d="M377.919 187.175V197.163H385.066V187.175L381.489 182.711L377.919 187.175Z" fill="black"/>
<path d="M377.918 187.175H372.301L377.918 197.163V187.175Z" fill="#3895EA"/>
<path d="M379.653 187.332H383.709V194.182H379.653V187.332Z" fill="#FBFAFF"/>
<path d="M381.896 187.803H383.207V190.008H381.896V187.803Z" fill="#3895EA"/>
<path d="M380.146 187.803H381.457V190.008H380.146V187.803Z" fill="#3895EA"/>
<path d="M381.896 190.416H383.207V193.687H381.896V190.416Z" fill="#3895EA"/>
<path d="M380.146 190.416H381.457V193.687H380.146V190.416Z" fill="#3895EA"/>
<path d="M293.777 84.9871C290.282 87.9585 287.682 91.8427 286.267 96.206C284.853 100.569 284.678 105.24 285.764 109.697C286.85 114.153 289.153 118.221 292.416 121.444C295.679 124.668 299.774 126.921 304.243 127.953L309.736 139.196L315.063 128.031C319.047 127.177 322.755 125.344 325.852 122.696C328.328 120.589 330.364 118.015 331.846 115.122C333.327 112.228 334.224 109.071 334.485 105.83C335.013 99.2861 332.919 92.8004 328.664 87.8C324.41 82.7995 318.343 79.6939 311.799 79.1664C305.255 78.6389 298.769 80.7327 293.769 84.9871H293.777Z" fill="white"/>
<path d="M293.776 84.987C290.283 87.9593 287.679 91.8396 286.252 96.1992C285.895 97.2835 285.606 98.3894 285.389 99.5102C285.201 100.637 285.083 101.774 285.036 102.915C284.929 105.204 285.143 107.497 285.671 109.726C286.191 111.961 287.017 114.113 288.127 116.12C288.689 117.121 289.32 118.081 290.018 118.992C290.692 119.922 291.437 120.798 292.246 121.613C295.518 124.908 299.646 127.224 304.165 128.298L303.921 128.109L309.351 139.384L309.743 140.208L310.136 139.384L315.502 128.243L315.173 128.502C319.848 127.488 324.136 125.157 327.528 121.783C330.92 118.41 333.275 114.135 334.314 109.465C335.353 104.795 335.033 99.9255 333.391 95.4319C331.75 90.9382 328.856 87.0088 325.051 84.1083C322.033 81.8463 318.548 80.2863 314.851 79.5418C311.155 78.7936 307.338 78.895 303.687 79.8383C300.036 80.7816 296.647 82.5422 293.776 84.987ZM293.776 84.987C296.628 82.5529 300 80.806 303.633 79.8809C307.266 78.9558 311.063 78.8772 314.731 79.6511C318.399 80.4251 321.841 82.031 324.79 84.345C327.74 86.659 330.119 89.6194 331.744 92.9979C333.364 96.338 334.201 100.004 334.192 103.716C334.146 107.41 333.3 111.051 331.712 114.387C330.103 117.706 327.761 120.617 324.863 122.9C321.96 125.171 318.584 126.764 314.985 127.56L314.749 127.615L314.655 127.827L309.359 139.008H310.143L304.565 127.803L304.494 127.646H304.329C299.894 126.676 295.818 124.485 292.56 121.322C291.751 120.533 291.004 119.683 290.324 118.78C289.622 117.894 288.985 116.958 288.418 115.979C287.28 114.017 286.424 111.904 285.875 109.702C285.306 107.5 285.063 105.227 285.154 102.955C285.194 101.82 285.302 100.688 285.475 99.5652C285.687 98.448 285.968 97.3449 286.315 96.2619C287.713 91.8866 290.296 87.984 293.776 84.987Z" fill="#263238"/>
<path d="M316.613 97.5566C316.339 97.2769 316.034 97.0294 315.703 96.819C315.265 96.5354 314.806 96.2862 314.33 96.0736C313.178 95.5511 311.943 95.2325 310.682 95.1321V102.194L311.333 102.327C312.457 102.595 313.565 102.925 314.652 103.316C315.548 103.63 316.391 104.077 317.155 104.642C317.819 105.153 318.356 105.811 318.724 106.564C319.117 107.436 319.308 108.385 319.281 109.341C319.313 110.403 319.092 111.457 318.638 112.417C318.218 113.26 317.605 113.991 316.849 114.551C316.048 115.135 315.146 115.566 314.189 115.822C313.13 116.114 312.039 116.27 310.941 116.285V119.863H309.175V116.215C307.568 116.118 305.983 115.793 304.468 115.25C303.008 114.724 301.641 113.97 300.419 113.013L302.153 109.749C302.481 110.086 302.847 110.384 303.244 110.636C303.775 110.982 304.331 111.289 304.907 111.554C305.585 111.867 306.285 112.129 307.002 112.339C307.771 112.566 308.559 112.727 309.356 112.817V105.756C309.222 105.717 309.073 105.669 308.932 105.638C308.788 105.608 308.647 105.569 308.508 105.52C307.444 105.245 306.396 104.91 305.37 104.516C304.562 104.215 303.809 103.783 303.142 103.237C302.567 102.764 302.108 102.165 301.8 101.487C301.469 100.718 301.311 99.8848 301.337 99.0473C301.315 98.031 301.513 97.0221 301.918 96.0893C302.294 95.2376 302.851 94.4774 303.55 93.861C304.271 93.2215 305.107 92.7237 306.013 92.3938C307.023 92.0261 308.08 91.8042 309.152 91.7347V88.2903H310.917V91.7347C312.319 91.806 313.7 92.1055 315.005 92.6213C316.177 93.0784 317.287 93.6822 318.308 94.4181L316.613 97.5566ZM305.378 98.4353C305.35 98.8493 305.427 99.2636 305.603 99.6396C305.779 100.016 306.047 100.341 306.382 100.585C307.318 101.174 308.347 101.598 309.426 101.841V95.1321C308.324 95.1051 307.244 95.4476 306.358 96.105C306.032 96.3961 305.775 96.7564 305.605 97.1595C305.435 97.5626 305.358 97.9984 305.378 98.4353ZM315.24 109.742C315.261 109.293 315.162 108.847 314.952 108.449C314.742 108.052 314.43 107.718 314.048 107.482C313.006 106.863 311.88 106.398 310.705 106.101V112.841C311.876 112.898 313.039 112.626 314.063 112.056C314.445 111.808 314.755 111.463 314.962 111.057C315.168 110.65 315.264 110.197 315.24 109.742Z" fill="#3895EA"/>
<path d="M181.134 262.039C180.741 261.809 180.414 261.48 180.185 261.085C179.956 260.691 179.832 260.244 179.827 259.787C179.827 259.335 179.827 258.893 179.827 258.44C179.779 257.986 179.806 257.528 179.908 257.083C180.019 256.638 180.248 256.232 180.571 255.907C180.913 255.608 181.291 255.354 181.698 255.152L184.04 253.785V253.835L178.45 244.264H178.581L175.504 246.074C174.938 246.356 174.292 246.434 173.674 246.295C173.093 246.114 172.541 245.85 172.036 245.511L171.271 245.078C170.99 244.931 170.735 244.737 170.517 244.505C170.072 244.042 169.801 243.437 169.753 242.796V239.227L169.985 239.458L158.925 239.559L159.267 239.227V242.806C159.235 243.32 159.072 243.816 158.794 244.249C158.516 244.682 158.132 245.037 157.678 245.279L156.924 245.732L156.17 246.174C155.878 246.357 155.559 246.493 155.225 246.576C154.548 246.725 153.84 246.644 153.214 246.345L150.098 244.566L150.701 244.405L145.201 254.026L145.02 253.353L148.137 255.142C148.575 255.443 148.931 255.85 149.172 256.324C149.413 256.798 149.53 257.325 149.514 257.857V258.742V259.616C149.52 259.957 149.473 260.296 149.374 260.622C149.165 261.301 148.728 261.887 148.137 262.281L145.02 264.07L145.191 263.437L150.681 273.059L150.118 272.908L153.244 271.148C153.872 270.854 154.58 270.78 155.255 270.937C155.578 271.022 155.886 271.154 156.17 271.329L156.934 271.782L157.688 272.224C157.981 272.385 158.246 272.592 158.473 272.838C158.925 273.333 159.195 273.968 159.237 274.637V278.227L158.965 277.955L170.025 278.066L169.864 278.227V274.657C169.912 274.032 170.174 273.442 170.608 272.988C171.064 272.588 171.571 272.25 172.116 271.983C172.618 271.653 173.163 271.393 173.735 271.209C174.334 271.066 174.965 271.14 175.514 271.42L178.601 273.21H178.53L184.1 263.628L181.134 262.039ZM181.134 262.039L184.08 263.729L178.581 273.34V273.391L175.484 271.631C174.959 271.377 174.362 271.313 173.795 271.45C173.215 271.625 172.665 271.89 172.166 272.234C171.642 272.5 171.158 272.838 170.729 273.24C170.339 273.661 170.108 274.205 170.075 274.778V278.337V278.498H169.914L158.855 278.609H158.593V278.267V274.718C158.552 274.194 158.332 273.701 157.97 273.32C157.787 273.132 157.577 272.973 157.347 272.848L156.562 272.405L155.778 271.963C155.558 271.83 155.316 271.735 155.064 271.681C154.559 271.568 154.03 271.632 153.566 271.862L150.55 273.662L150.198 273.873L149.987 273.511L144.407 263.94L144.176 263.538L144.578 263.306L147.594 261.527C147.995 261.251 148.289 260.847 148.429 260.381C148.497 260.145 148.531 259.902 148.529 259.657V258.752V257.847C148.531 257.602 148.497 257.358 148.429 257.123C148.288 256.66 147.989 256.262 147.584 255.997L144.568 254.207L144.135 253.966L144.387 253.544L149.957 243.972L150.188 243.58L150.57 243.801L153.586 245.581C154.035 245.802 154.546 245.863 155.034 245.752C155.28 245.7 155.515 245.605 155.728 245.47L156.512 245.028L157.306 244.586C157.53 244.467 157.733 244.314 157.91 244.133C158.265 243.763 158.479 243.278 158.513 242.766V239.237V238.885H158.845L169.904 238.985H170.155V239.217V242.766C170.192 243.319 170.416 243.844 170.789 244.254C171.212 244.654 171.689 244.993 172.206 245.259C172.68 245.597 173.202 245.862 173.755 246.043C174.305 246.174 174.883 246.114 175.394 245.873L178.5 244.133L178.581 244.083V244.163L184.08 253.785L181.728 255.132C181.323 255.328 180.948 255.578 180.612 255.876C180.29 256.19 180.06 256.587 179.948 257.023C179.842 257.463 179.812 257.919 179.858 258.37C179.858 258.822 179.858 259.275 179.858 259.717C179.847 260.182 179.96 260.642 180.184 261.05C180.408 261.458 180.736 261.799 181.134 262.039Z" fill="#EBEBEB"/>
<path d="M164.405 267.861C162.865 267.854 161.35 267.467 159.996 266.733C158.643 265.999 157.491 264.941 156.646 263.654C155.8 262.367 155.286 260.891 155.15 259.357C155.013 257.823 155.259 256.279 155.864 254.863C156.469 253.447 157.416 252.203 158.619 251.242C159.822 250.28 161.244 249.632 162.759 249.354C164.274 249.076 165.834 249.177 167.3 249.649C168.766 250.12 170.092 250.947 171.161 252.056C172.89 253.863 173.83 256.282 173.775 258.782C173.694 261.205 172.677 263.502 170.936 265.19C169.196 266.877 166.869 267.824 164.445 267.831L164.405 267.861ZM164.405 267.861C165.582 267.86 166.747 267.623 167.832 267.165C168.916 266.707 169.898 266.037 170.72 265.194C171.541 264.351 172.186 263.352 172.616 262.256C173.045 261.16 173.252 259.989 173.222 258.812C173.154 256.516 172.194 254.336 170.547 252.735C168.899 251.134 166.692 250.238 164.395 250.236C162.053 250.236 159.808 251.166 158.153 252.822C156.497 254.477 155.567 256.722 155.567 259.064C155.567 261.405 156.497 263.65 158.153 265.306C159.808 266.961 162.053 267.891 164.395 267.891L164.405 267.861Z" fill="#EBEBEB"/>
<path d="M0 381.583L55.1064 381.341L110.213 381.251L220.425 381.09L330.638 381.251L385.745 381.341L440.851 381.583L385.745 381.834L330.638 381.924L220.425 382.085L110.213 381.924L55.1064 381.834L0 381.583Z" fill="#263238"/>
<path d="M107.287 257.726C116.134 296.223 134.433 342.372 142.245 349.862C152.128 359.333 217.51 376.706 220.767 377.058C228.81 377.872 245.028 319.75 236.421 318.493C223.351 316.603 175.735 314.019 172.89 311.093C170.044 308.168 149.836 282.691 129.185 254.067C114.928 234.29 101.787 233.838 107.287 257.726Z" fill="#AD6359"/>
<path d="M214.292 373.921C215.248 374.404 228.911 381.281 237.356 383.724C243.66 385.554 261.939 390.329 264.643 383.583C266.493 378.998 256.067 374.927 248.768 371.88C244.917 370.272 240.172 366.25 241.308 363.777C243.318 359.453 253.202 363.777 259.717 367.577C272.314 374.896 289.095 388.077 296.786 381.653C299.692 379.24 296.314 374.836 291.377 370.523C299.42 375.55 307.946 379.672 311.274 377.118C313.194 375.661 313.285 373.66 312.219 371.388C314.692 372.192 316.874 372.031 318.402 370.382C321.006 367.647 319.739 363.626 316.884 359.494C317.374 359.443 317.845 359.276 318.258 359.007C318.671 358.737 319.013 358.374 319.257 357.945C324.777 349.53 297.138 325.37 287.597 323.108C259.495 316.422 229.876 317.669 229.876 317.669C218.837 326.526 214.262 373.901 214.292 373.921Z" fill="#AD6359"/>
<path d="M255.615 348.052C262.306 349.097 268.698 351.555 274.366 355.261C281.494 359.966 286.219 365.476 292.191 371.016C292.215 371.047 292.227 371.086 292.226 371.125C292.224 371.164 292.209 371.202 292.183 371.231C292.157 371.261 292.122 371.281 292.083 371.287C292.044 371.294 292.004 371.286 291.97 371.267C289.125 368.633 277.321 358.719 274.275 356.467C268.765 352.321 262.384 349.481 255.615 348.163C255.524 348.153 255.544 348.032 255.615 348.052Z" fill="#263238"/>
<path d="M260.853 336.118C268.243 338.129 275.813 340.14 282.67 343.679C290.171 347.499 296.042 353.733 301.773 359.765C305.245 363.365 308.633 367.051 311.938 370.825C312.068 370.986 311.857 371.237 311.716 371.076C305.858 364.883 299.826 358.85 293.619 352.979C287.874 347.526 281.109 343.262 273.712 340.431C269.489 338.812 265.146 337.536 260.803 336.249C260.742 336.229 260.772 336.098 260.853 336.118Z" fill="#263238"/>
<path d="M268.745 325.692C275.924 327.17 282.188 328.427 288.542 332.267C296.957 337.365 305.081 345.941 307.926 348.987C311.073 352.345 314.109 355.804 317.085 359.313C317.206 359.453 316.965 359.675 316.834 359.534C310.014 351.84 302.702 344.596 294.946 337.847C291.297 334.58 287.167 331.894 282.7 329.884C278.172 328.107 273.5 326.721 268.735 325.742C268.735 325.742 268.685 325.682 268.745 325.692Z" fill="#263238"/>
<path d="M225.352 315.356L205.244 379.059C205.244 379.059 150.801 363.515 140.898 352.788C130.995 342.06 112.586 286.662 107.187 259.808C101.788 232.953 115.361 233.667 127.838 250.548C140.315 267.429 171.382 308.509 173.081 309.404C174.78 310.299 225.352 315.356 225.352 315.356Z" fill="#3895EA"/>
<path opacity="0.1" d="M225.352 315.356L205.244 379.059C205.244 379.059 150.801 363.515 140.898 352.788C130.995 342.06 112.586 286.662 107.187 259.808C101.788 232.953 115.361 233.667 127.838 250.548C140.315 267.429 171.382 308.509 173.081 309.404C174.78 310.299 225.352 315.356 225.352 315.356Z" fill="black"/>
<path d="M200.016 350.757C202.459 343.246 204.952 335.756 207.104 328.155C208.33 323.842 209.577 319.519 210.763 315.195C210.814 315.024 210.542 314.934 210.482 315.095C207.737 322.535 205.002 330.005 202.599 337.566C200.197 345.126 197.753 352.647 195.461 360.157C194.164 364.46 192.988 368.784 191.952 373.157C191.952 373.238 192.073 373.288 192.103 373.207C195.099 365.858 197.562 358.317 200.016 350.757Z" fill="#263238"/>
<path d="M177.786 370.302L175.373 369.457C170.839 367.839 166.214 366.099 161.86 364.32C161.297 364.098 160.744 363.867 160.202 363.636C159.327 363.274 158.452 362.902 157.608 362.53L156.341 361.977L155.888 361.776L154.581 361.173C152.852 360.378 151.213 359.584 149.685 358.78L148.68 358.217C146.291 356.988 144.039 355.508 141.963 353.803C141.772 353.632 141.581 353.461 141.41 353.29C141.24 353.119 141.059 352.949 140.908 352.788C130.954 342.06 112.596 286.662 107.196 259.808L107.015 258.883V258.682C106.654 256.671 106.332 254.117 106.07 251.382C105.316 238.02 111.64 235.839 119.452 241.71C138.927 283.505 168.758 352.566 177.786 370.302Z" fill="#263238"/>
<path d="M149.544 380.999L30.9062 381.623C31.0068 379.069 47.8976 304.367 61.3299 276.799C78.5525 241.449 87.4705 238.593 92.7287 236.703C99.5152 234.27 111.6 235.477 114.466 236.834C117.723 238.352 128.079 256.429 131.789 269.691C139.209 296.364 151.213 379.371 149.544 380.999Z" fill="#EBEBEB"/>
<path d="M86.6459 239.498C86.6459 239.498 101.727 295.349 102.481 299.059C103.617 304.448 111.138 381.341 111.138 381.341L28.4429 381.623C28.4429 381.623 46.4899 310.44 59.9222 279.272C74.581 245.088 86.6459 239.498 86.6459 239.498Z" fill="#3895EA"/>
<g opacity="0.1">
<path d="M86.6459 239.498C86.6459 239.498 101.727 295.349 102.481 299.059C103.617 304.448 111.138 381.341 111.138 381.341L28.4429 381.623C28.4429 381.623 46.4899 310.44 59.9222 279.272C74.581 245.088 86.6459 239.498 86.6459 239.498Z" fill="black"/>
</g>
<path d="M115.552 237.699C115.994 239.478 129.899 284.852 130.864 296.163C131.94 308.711 141.451 381.623 141.451 381.623H153.516C153.516 381.623 136.052 276.869 131.256 265.8C121.443 243.208 115.552 237.699 115.552 237.699Z" fill="#3895EA"/>
<path opacity="0.1" d="M115.552 237.699C115.994 239.478 129.899 284.852 130.864 296.163C131.94 308.711 141.451 381.623 141.451 381.623H153.516C153.516 381.623 136.052 276.869 131.256 265.8C121.443 243.208 115.552 237.699 115.552 237.699Z" fill="black"/>
<path d="M71.0321 252.559C51.1652 273.843 2.86547 354.597 18.1879 369.327C33.5103 384.056 118.578 364.229 142.466 352.838C149.574 349.46 122.569 305.141 114.214 304.106C107.257 303.251 71.7057 319.509 70.6701 317.468C69.5139 315.155 75.1643 298.093 83.7404 267.197C93.5834 231.586 79.8193 243.148 71.0321 252.559Z" fill="#AD6359"/>
<path d="M149.524 289.809C166.797 287.396 171.643 289.437 185.105 279.664C193.963 273.25 201.865 276.155 196.808 286.34C188.544 303.01 166.907 310.792 158.603 311.335L149.524 289.809Z" fill="#AD6359"/>
<path d="M103.637 306.418C103.637 306.418 123.052 295.64 141.209 291.257C153.757 288.24 181.808 284.671 208.652 312.37C215.016 318.936 219.43 332.81 205.143 325.863C194.989 320.926 190.062 314.733 183.617 312.933C183.617 312.933 187.136 331.242 180.31 337.365C174.343 342.715 168.003 347.634 161.338 352.084C160.242 351.053 159.214 349.951 158.261 348.786C158.261 348.786 151.344 353.904 138.334 352.657L103.637 306.418Z" fill="#AD6359"/>
<path d="M153.656 290.332C159.689 293.458 172.266 300.305 180.631 309.495C189.931 319.71 205.083 341.869 197.472 348.706C191.902 353.682 185.407 345.689 185.407 345.689C185.407 345.689 189.74 356.176 183.718 359.564C178.239 362.661 173.553 356.206 173.553 356.206C173.553 356.206 175.092 363.013 169.23 364.973C162.192 367.326 160.121 352.667 150.922 348.887C148.82 347.982 153.656 290.332 153.656 290.332Z" fill="#AD6359"/>
<path d="M168.215 317.478C173.373 321.348 182.843 333.142 185.458 345.358C185.518 345.639 185.347 345.83 185.236 345.589C180.695 335.591 174.955 326.182 168.144 317.568C168.064 317.478 168.144 317.478 168.215 317.478Z" fill="#263238"/>
<path d="M158.181 327.16C162.293 330.96 171.512 343.548 173.734 356.025C173.785 356.306 173.594 356.487 173.503 356.236C169.477 346.02 164.307 336.292 158.09 327.24C158.03 327.18 158.09 327.109 158.181 327.16Z" fill="#263238"/>
<path d="M183.617 312.812C189.248 314.471 192.907 317.236 197.693 320.534C200.022 322.199 202.442 323.733 204.942 325.129C207.234 326.365 210.622 328.235 213.056 326.295C214.423 325.219 214.403 323.279 214.061 321.7C213.373 319.415 212.328 317.254 210.964 315.296C210.964 315.215 211.035 315.125 211.095 315.195C212.412 316.979 213.544 318.893 214.473 320.906C215.082 322.286 215.261 323.817 214.986 325.3C214.151 328.396 210.492 328.809 207.948 327.954C206.407 327.388 204.925 326.67 203.524 325.812C202.157 325.028 200.83 324.184 199.503 323.299C196.828 321.489 194.265 319.529 191.61 317.689C189.031 315.958 186.345 314.393 183.567 313.004C183.546 312.993 183.529 312.976 183.519 312.955C183.509 312.934 183.507 312.91 183.513 312.887C183.519 312.865 183.533 312.845 183.552 312.831C183.571 312.817 183.594 312.811 183.617 312.812Z" fill="#263238"/>
<path d="M195.411 332.619C193.953 329.412 186.061 316.04 183.507 312.943C183.498 312.928 183.494 312.91 183.496 312.892C183.498 312.874 183.506 312.857 183.519 312.844C183.531 312.832 183.548 312.824 183.566 312.821C183.584 312.819 183.602 312.823 183.618 312.833C188.011 316.995 195.059 328.045 196.688 331.584C198.317 335.123 200.187 339.556 200.187 343.447C200.187 349.329 196.286 350.485 194.848 350.737C193.127 351.048 191.352 350.757 189.821 349.912C188.03 348.818 186.483 347.367 185.276 345.649C185.216 345.569 185.327 345.458 185.397 345.539C187.408 347.861 190.826 350.143 194.013 349.721C194.72 349.654 195.407 349.446 196.032 349.11C196.657 348.773 197.208 348.314 197.653 347.761C198.524 346.346 198.859 344.666 198.598 343.025C198.128 339.402 197.05 335.884 195.411 332.619Z" fill="#263238"/>
<path d="M103.637 306.418L130.864 363.726C130.864 363.726 24.371 387.635 15.1816 369.095C5.99218 350.556 47.3546 278.005 65.9848 256.872C87.591 232.38 90.3458 240.715 85.5903 262.422C80.5632 285.144 70.9817 318 70.9817 318L103.637 306.418Z" fill="#3895EA"/>
<path opacity="0.1" d="M103.637 306.418L130.864 363.726C130.864 363.726 24.371 387.635 15.1816 369.095C5.99218 350.556 47.3546 278.005 65.9848 256.872C87.591 232.38 90.3458 240.715 85.5903 262.422C80.5632 285.144 70.9817 318 70.9817 318L103.637 306.418Z" fill="black"/>
<path d="M38.6175 333.253C48.4402 326.431 59.2265 321.114 70.6196 317.478C73.8469 316.472 77.1044 315.517 80.362 314.582C80.4625 314.582 80.5027 314.713 80.362 314.743C74.6804 316.582 69.111 318.75 63.6823 321.238C58.2598 323.651 52.8976 326.161 47.5957 328.768C44.5795 330.246 41.6437 331.865 38.6878 333.444C38.668 333.439 38.6496 333.43 38.6343 333.417C38.6189 333.403 38.6072 333.386 38.6002 333.367C38.5932 333.348 38.5911 333.328 38.5941 333.308C38.5971 333.288 38.6052 333.269 38.6175 333.253Z" fill="#263238"/>
<path d="M103.356 306.267C102.823 306.408 73.6964 316.03 72.7413 316.472C72.8619 316.03 78.0901 300.547 78.8743 298.274C78.9446 298.053 79.015 297.822 79.0955 297.601C79.6183 296.595 80.1612 295.59 80.6538 294.585C81.2772 293.267 81.9005 291.93 82.5138 290.563H82.4535L80.4427 294.454C80.131 295.047 79.8395 295.66 79.5479 296.274C80.0606 294.675 80.5533 293.066 81.046 291.448C81.8302 288.884 82.534 286.29 83.2277 283.696C83.2277 283.605 83.1271 283.585 83.097 283.696C81.5487 288.21 79.8596 292.674 78.3012 297.189C76.7428 301.703 70.7506 318.302 70.8009 318.302C70.8511 318.302 102.873 306.981 103.497 306.73C103.527 306.721 103.555 306.705 103.58 306.685C103.604 306.665 103.625 306.64 103.64 306.612C103.655 306.584 103.664 306.554 103.667 306.522C103.67 306.49 103.667 306.459 103.658 306.428C103.648 306.398 103.633 306.37 103.613 306.345C103.593 306.321 103.568 306.3 103.54 306.285C103.512 306.27 103.481 306.261 103.45 306.258C103.418 306.255 103.386 306.258 103.356 306.267Z" fill="#263238"/>
<path d="M105.316 343.618C102.3 337.234 99.3742 330.809 96.1469 324.516C94.307 320.946 92.4872 317.367 90.6171 313.818C90.5468 313.687 90.3055 313.818 90.3658 313.929C93.1206 320.464 95.8955 326.999 98.952 333.423C102.008 339.848 104.984 346.192 108.091 352.526C109.861 356.126 111.741 359.668 113.731 363.153C113.731 363.224 113.892 363.153 113.862 363.153C111.329 356.498 108.342 350.073 105.316 343.618Z" fill="#263238"/>
<path d="M132.241 364.611C131.175 362.842 129.828 360.308 128.692 358.579C128.39 358.126 128.038 358.217 128.28 358.689C129.094 360.298 129.768 362.098 130.562 363.716C129.074 364.018 127.546 364.279 126.078 364.591C124.349 364.953 122.629 365.325 120.9 365.677C117.508 366.347 114.117 367.017 110.725 367.688C103.848 368.968 96.9445 370.094 90.0139 371.066C76.1294 373.099 62.1489 374.411 48.1286 374.997C44.2075 375.138 40.2764 375.208 36.3553 375.158C32.4875 375.168 28.6217 374.98 24.773 374.595C24.6624 374.595 24.6423 374.766 24.773 374.786C28.0847 375.486 31.4465 375.923 34.8271 376.093C38.3762 376.264 41.9353 376.344 45.4945 376.304C52.5323 376.224 59.6405 375.761 66.6884 375.118C80.6636 373.831 94.5985 371.941 108.413 369.497C112.287 368.827 116.151 368.1 120.005 367.316C121.956 366.924 123.896 366.531 125.837 366.099C127.777 365.667 132.422 364.913 132.241 364.611Z" fill="#263238"/>
<path d="M115.571 258.541C108.534 260.481 95.9358 250.075 90.7882 241.449C90.4363 240.856 91.13 234.461 91.6026 226.649C91.874 221.914 92.055 216.595 91.874 211.789C91.874 210.784 122.469 218.043 122.469 218.043C122.469 218.043 119.854 228.278 120.216 236.703C120.248 237.381 120.343 238.054 120.498 238.714C120.526 238.82 120.546 238.927 120.558 239.036C121.312 242.766 122.378 256.661 115.571 258.541Z" fill="#AD6359"/>
<path d="M93.7441 211.91C95.4533 220.034 101.265 239.589 117.452 239.357C118.49 239.347 119.525 239.253 120.548 239.076C120.561 238.966 120.561 238.854 120.548 238.744C120.399 238.082 120.302 237.41 120.257 236.733C119.905 228.298 122.509 218.053 122.509 218.053C122.509 218.053 100.37 212.825 93.7441 211.91Z" fill="#263238"/>
<path d="M126.119 197.281C125.777 204.701 130.784 210.955 137.299 211.256C143.814 211.558 149.364 205.767 149.695 198.347C150.027 190.927 145.02 184.673 138.515 184.382C132.01 184.09 126.45 189.861 126.119 197.281Z" fill="#455A64"/>
<path d="M148.499 198.757C148.873 190.503 143.303 183.546 136.058 183.218C128.814 182.891 122.638 189.316 122.265 197.57C121.892 205.824 127.462 212.781 134.706 213.109C141.951 213.436 148.126 207.011 148.499 198.757Z" fill="#C7C7C7"/>
<path d="M95.8659 173.292C90.5975 183.226 90.2657 214.805 96.459 223.07C105.437 235.034 123.082 239.428 133.961 227.996C144.548 216.877 144.246 175.715 137.057 167.903C126.491 156.371 103.648 158.623 95.8659 173.292Z" fill="#AD6359"/>
<path d="M122.127 197.704C122.127 197.623 121.956 197.814 121.966 197.905C122.077 200.026 121.855 202.479 119.955 203.223C119.895 203.223 119.905 203.354 119.955 203.344C122.308 202.962 122.569 199.704 122.127 197.704Z" fill="#263238"/>
<path d="M120.176 195.532C116.748 195.351 116.637 202.218 119.804 202.379C122.971 202.54 123.052 195.683 120.176 195.532Z" fill="#263238"/>
<path d="M134.031 197.965C134.031 197.885 134.192 198.076 134.192 198.156C134.091 200.287 134.332 202.741 136.203 203.475C136.263 203.475 136.203 203.605 136.203 203.595C133.88 203.223 133.588 199.966 134.031 197.965Z" fill="#263238"/>
<path d="M135.971 195.823C139.39 195.612 139.551 202.479 136.374 202.67C133.197 202.861 133.096 195.944 135.971 195.823Z" fill="#263238"/>
<path d="M117.1 190.042C118.105 189.992 118.94 189.781 119.895 189.64C120.903 189.621 121.875 189.267 122.66 188.635C122.87 188.393 122.994 188.087 123.012 187.767C123.031 187.447 122.942 187.13 122.76 186.865C122.321 186.403 121.766 186.066 121.152 185.889C120.539 185.712 119.89 185.702 119.272 185.86C117.961 185.964 116.738 186.556 115.843 187.519C115.656 187.749 115.539 188.029 115.506 188.325C115.473 188.62 115.526 188.919 115.659 189.185C115.791 189.451 115.998 189.674 116.253 189.826C116.509 189.978 116.803 190.053 117.1 190.042Z" fill="#263238"/>
<path d="M139.199 190.796C138.281 190.595 137.375 190.343 136.484 190.042C135.495 189.923 134.573 189.481 133.86 188.786C133.68 188.52 133.593 188.202 133.613 187.882C133.633 187.562 133.759 187.257 133.971 187.016C134.462 186.604 135.055 186.33 135.687 186.222C136.32 186.115 136.969 186.177 137.57 186.403C138.856 186.673 139.995 187.411 140.767 188.474C140.918 188.726 140.993 189.017 140.985 189.31C140.976 189.604 140.885 189.89 140.72 190.133C140.556 190.377 140.325 190.568 140.056 190.686C139.786 190.803 139.489 190.842 139.199 190.796Z" fill="#263238"/>
<path d="M118.246 217.42C118.749 217.922 119.252 218.616 120.016 218.696C120.806 218.689 121.587 218.518 122.308 218.194C122.322 218.191 122.337 218.192 122.351 218.197C122.365 218.201 122.378 218.21 122.387 218.221C122.396 218.233 122.402 218.247 122.404 218.261C122.406 218.276 122.404 218.291 122.398 218.304C122.09 218.719 121.674 219.043 121.196 219.239C120.718 219.436 120.195 219.499 119.684 219.42C119.252 219.299 118.865 219.054 118.571 218.714C118.278 218.374 118.092 217.955 118.035 217.51C118.005 217.389 118.166 217.339 118.246 217.42Z" fill="#263238"/>
<path d="M120.588 211.085C121.113 211.935 121.809 212.667 122.631 213.235C123.453 213.802 124.383 214.193 125.364 214.383C126.219 214.566 127.096 214.623 127.968 214.554C128.137 214.548 128.304 214.531 128.471 214.504L128.933 214.434C129.047 214.415 129.152 214.359 129.232 214.276C129.311 214.193 129.362 214.086 129.376 213.971C129.381 213.897 129.381 213.823 129.376 213.75V213.559C129.446 211.92 129.376 209.427 129.376 209.427C129.969 209.738 133.005 211.166 132.965 210.311C132.663 203.213 132.322 195.331 130.522 188.343C130.512 188.299 130.487 188.259 130.451 188.231C130.416 188.202 130.371 188.187 130.326 188.187C130.28 188.187 130.236 188.202 130.2 188.231C130.165 188.259 130.14 188.299 130.13 188.343C130.13 195.17 131.376 201.946 131.507 208.803C130.43 208.283 129.287 207.914 128.109 207.707C127.878 207.778 128.421 212.523 128.33 213.257C128.332 213.284 128.332 213.311 128.33 213.338C125.565 213.639 123.504 212.775 120.87 210.884C120.629 210.774 120.458 210.905 120.588 211.085Z" fill="#263238"/>
<path d="M127.013 213.7C126.099 214.857 124.9 215.757 123.534 216.314C122.78 216.593 121.958 216.631 121.182 216.424C119.493 215.942 119.472 214.413 119.804 213.056C119.99 212.357 120.256 211.682 120.599 211.045C122.399 212.591 124.647 213.521 127.013 213.7Z" fill="#263238"/>
<path d="M123.534 216.314C122.78 216.593 121.958 216.631 121.182 216.424C119.493 215.942 119.472 214.413 119.804 213.056C121.624 213.277 123.404 214.544 123.534 216.314Z" fill="#FF98B9"/>
<path opacity="0.2" d="M91.9141 195.592C93.9852 195.26 98.9519 188.253 101.053 185.468C103.155 182.683 104.371 167.752 104.562 164.354C100.875 166.439 97.8556 169.528 95.8553 173.262C93.5026 177.726 92.1453 186.503 91.9141 195.592Z" fill="#263238"/>
<path d="M130.25 176.721C129.023 178.067 127.471 179.078 125.743 179.657C124.016 180.236 122.168 180.364 120.377 180.028C118.549 179.692 116.838 178.894 115.405 177.709C113.973 176.525 112.867 174.994 112.193 173.262C112.193 173.151 111.992 173.212 112.032 173.312C112.576 175.199 113.625 176.902 115.065 178.236C116.506 179.57 118.284 180.485 120.206 180.883C122.117 181.172 124.07 180.952 125.868 180.246C127.667 179.54 129.247 178.373 130.451 176.861C130.458 176.836 130.457 176.808 130.448 176.783C130.439 176.758 130.422 176.736 130.4 176.721C130.378 176.705 130.352 176.697 130.325 176.697C130.298 176.697 130.272 176.705 130.25 176.721Z" fill="#263238"/>
<path d="M120.036 149.957C113.832 149.896 108.041 153.144 105.638 157.286C104.304 159.647 103.807 162.39 104.231 165.068C104.231 165.179 104.462 165.159 104.452 165.068C104.4 162.708 104.984 160.376 106.142 158.319C107.301 156.262 108.992 154.554 111.037 153.375C113.277 152.002 115.805 151.168 118.422 150.938C121.039 150.708 123.673 151.088 126.118 152.048C128.502 152.93 130.491 154.634 131.728 156.854C131.849 157.085 132.312 156.954 132.221 156.723C130.653 152.782 125.636 150.007 120.036 149.957Z" fill="#263238"/>
<path d="M155.577 164.525C154.657 161.436 152.678 158.769 149.987 156.995C146.257 154.521 141.943 154.732 137.681 155.034C137.657 155.034 137.634 155.044 137.617 155.061C137.6 155.078 137.59 155.101 137.59 155.125C137.59 155.149 137.6 155.172 137.617 155.189C137.634 155.205 137.657 155.215 137.681 155.215C141.32 154.974 145.03 154.934 148.308 156.753C151.036 158.23 153.168 160.607 154.34 163.479C155.456 166.426 155.47 169.676 154.38 172.631C153.291 175.587 151.17 178.05 148.408 179.566C146.798 180.398 145.034 180.892 143.226 181.018C141.417 181.145 139.602 180.9 137.892 180.3C137.751 180.25 137.65 180.441 137.781 180.501C140.092 181.412 142.61 181.661 145.055 181.222C147.499 180.783 149.773 179.672 151.622 178.014C153.471 176.356 154.822 174.216 155.524 171.834C156.226 169.452 156.251 166.921 155.597 164.525H155.577Z" fill="#263238"/>
<path d="M93.6237 179.375C93.6237 179.375 88.1341 168.084 93.2818 161.851C96.1975 158.322 105.427 159.126 105.427 159.126C105.427 159.126 108.594 153.928 116.316 152.45C124.037 150.972 133.146 155.808 133.146 155.808C133.146 155.808 140.647 151.877 147.383 156.06C156.783 161.891 155.054 176.459 145.221 180.803C138.324 183.819 129.336 177.525 129.336 177.525C128.441 177.615 119.171 182.743 112.616 174.408C112.616 174.408 106.865 179.154 101.989 175.504C101.159 176.929 99.9118 178.064 98.4156 178.757C96.9194 179.449 95.2466 179.665 93.6237 179.375Z" fill="#263238"/>
<path d="M97.575 199.413C97.575 199.413 92.357 188.353 87.4405 190.002C82.5241 191.651 85.2487 206.953 90.1752 209.829C90.7831 210.241 91.4681 210.526 92.189 210.667C92.9099 210.808 93.6518 210.802 94.3703 210.649C95.0887 210.496 95.7688 210.199 96.3696 209.777C96.9704 209.354 97.4796 208.814 97.8666 208.19L97.575 199.413Z" fill="#AD6359"/>
<path d="M88.3249 194.356C88.2445 194.356 88.2043 194.456 88.3249 194.496C91.7634 196.628 93.1207 200.398 93.8647 204.188C93.0101 202.63 91.6327 201.625 89.5817 202.61C89.5605 202.624 89.5442 202.644 89.5352 202.668C89.5263 202.692 89.5251 202.718 89.5317 202.742C89.5384 202.767 89.5527 202.789 89.5725 202.805C89.5923 202.821 89.6166 202.83 89.642 202.831C90.3286 202.738 91.0272 202.859 91.6425 203.177C92.2578 203.496 92.76 203.996 93.0805 204.611C93.6016 205.644 94.0128 206.729 94.3071 207.848C94.4277 208.21 95.0511 208.13 94.9908 207.727C94.9955 207.697 94.9955 207.667 94.9908 207.637C95.8353 202.942 93.3117 195.713 88.3249 194.356Z" fill="#263238"/>
<path d="M108.946 221.682L99.0427 217.409L91.0798 207.496L92.6081 206.26L100.269 215.801L109.73 219.883L108.946 221.682Z" fill="#C7C7C7"/>
<path d="M107.89 220.104C108.896 217.218 116.939 218.284 115.481 222.648C114.023 227.011 106.915 222.969 107.89 220.104Z" fill="#37474F"/>
<path d="M87.2897 189.7C87.2897 189.7 86.214 173.483 90.9595 164.565C96.2479 154.602 118.166 145.121 133.187 155.828C133.187 155.828 108.785 151.465 97.4142 165.279C92.6285 171.09 92.7491 190.153 92.7491 190.153L87.2897 189.7Z" fill="#C7C7C7"/>
<path d="M89.5023 212.992C96.7538 212.92 102.566 206.164 102.483 197.902C102.401 189.64 96.4562 183.001 89.2047 183.073C81.9532 183.145 76.1413 189.901 76.2235 198.163C76.3057 206.425 82.2509 213.064 89.5023 212.992Z" fill="#C7C7C7"/>
<path d="M98.6503 197.472C98.7207 204.902 93.5027 210.975 86.9876 211.035C80.4726 211.096 75.1238 205.133 75.0534 197.704C74.9831 190.274 80.2011 184.201 86.7162 184.141C93.2312 184.08 98.58 190.042 98.6503 197.472Z" fill="#455A64"/>
<path d="M120.438 238.533L113.35 256.429L91.0498 233.928L84.7961 241.208C84.7961 241.208 106.664 277.01 106.794 275.391L114.084 259.958L124.761 270.626L123.756 243.741L120.438 238.533Z" fill="#EBEBEB"/>
<path d="M125.022 257.304C124.711 252.87 124.53 248.396 124.017 243.982C124.017 243.832 123.756 243.761 123.715 243.982C122.851 248.276 124.128 265.217 124.128 269.289H124.077C123.635 268.826 114.184 259.908 114.094 260.049C112.515 262.502 107.156 273.732 106.794 274.758C103.336 269.067 88.697 246.657 84.5748 241.278C84.5548 241.243 84.5219 241.218 84.4832 241.208C84.4446 241.197 84.4034 241.203 84.3687 241.223C84.334 241.243 84.3087 241.276 84.2984 241.314C84.288 241.353 84.2934 241.394 84.3134 241.429C87.3296 247.461 106.332 277.03 106.593 276.95C109.414 271.648 111.961 266.205 114.224 260.642C115.823 262.582 125.354 272.657 125.384 271.993C125.523 267.094 125.402 262.191 125.022 257.304Z" fill="#263238"/>
<path d="M236.452 382.829H229.554V387.333H236.452V382.829Z" fill="#455A64"/>
<path d="M245.39 382.528H238.493V387.032H245.39V382.528Z" fill="#455A64"/>
<path d="M254.338 382.226H247.44V386.73H254.338V382.226Z" fill="#455A64"/>
<path d="M263.286 381.934H256.388V386.439H263.286V381.934Z" fill="#455A64"/>
<path d="M272.234 381.633H265.337V386.137H272.234V381.633Z" fill="#455A64"/>
<path d="M281.182 381.341H274.285V385.845H281.182V381.341Z" fill="#455A64"/>
<path d="M290.13 381.039H283.233V385.544H290.13V381.039Z" fill="#455A64"/>
<path d="M299.078 380.738H292.181V385.242H299.078V380.738Z" fill="#455A64"/>
<path d="M308.016 380.446H301.119V384.951H308.016V380.446Z" fill="#455A64"/>
<path d="M309.716 389.917H227.855V384.438L309.716 382.155V389.917Z" fill="#37474F"/>
<path d="M389.605 368.311H254.479L275.964 267.71H411.091L389.605 368.311Z" fill="#455A64"/>
<path d="M394.602 368.311H259.475L280.961 267.71H416.088L394.602 368.311Z" fill="#37474F"/>
<path d="M346.347 317.831C350.013 314.443 350.639 309.158 347.745 306.026C344.85 302.894 339.532 303.101 335.866 306.489C332.2 309.877 331.574 315.163 334.468 318.295C337.362 321.427 342.68 321.219 346.347 317.831Z" fill="#263238"/>
<path d="M356.387 394.582H289.929V389.415L356.387 387.273V394.582Z" fill="#455A64"/>
<path d="M374.454 394.572H338.772L317.276 338.199H352.958L374.454 394.572Z" fill="#455A64"/>
<path d="M380.325 394.572H344.644L323.158 338.199H358.84L380.325 394.572Z" fill="#263238"/>
<path d="M225.332 395.95H156.813C150.972 395.95 159.427 379.3 180.772 372.916C202.117 366.532 232.068 389.706 225.332 395.95Z" fill="#37474F"/>
<path d="M198.447 395.95C198.502 394.052 198.816 392.172 199.382 390.36C199.934 388.533 200.707 386.781 201.684 385.142C202.667 383.495 203.895 382.007 205.324 380.728C206.737 379.445 208.368 378.423 210.14 377.712C209.406 378.315 208.571 378.717 207.898 379.391L206.892 380.285L205.887 381.291C204.616 382.616 203.503 384.084 202.569 385.664C201.62 387.245 200.806 388.903 200.136 390.621C199.454 392.357 198.889 394.138 198.447 395.95Z" fill="#263238"/>
<path d="M206.561 380.104C210.63 381.451 214.482 383.385 217.992 385.845C219.766 387.071 221.372 388.525 222.768 390.169C223.453 391.009 224.043 391.923 224.527 392.893C225.005 393.863 225.279 394.92 225.332 396C225.092 394.976 224.673 394.003 224.095 393.124C223.548 392.244 222.908 391.425 222.185 390.681C220.72 389.197 219.121 387.851 217.409 386.66C215.71 385.433 213.91 384.337 212.111 383.251C211.206 382.709 210.281 382.186 209.356 381.683C208.431 381.18 207.496 380.617 206.561 380.104Z" fill="#263238"/>
<path d="M230.238 167.561C229.647 173.169 227.509 178.502 224.064 182.966C220.619 187.429 216.001 190.848 210.726 192.841C205.452 194.833 199.727 195.321 194.191 194.25C188.655 193.179 183.525 190.591 179.374 186.775L164.122 189.047L171.743 175.886C169.839 171.25 169.12 166.211 169.652 161.227C170.043 157.231 171.22 153.351 173.116 149.812C175.012 146.272 177.59 143.143 180.7 140.604C183.811 138.065 187.393 136.166 191.241 135.017C195.088 133.868 199.125 133.492 203.119 133.909C207.112 134.327 210.984 135.531 214.51 137.451C218.037 139.371 221.149 141.97 223.666 145.098C226.184 148.226 228.059 151.821 229.181 155.676C230.304 159.531 230.653 163.571 230.208 167.561H230.238Z" fill="white"/>
<path d="M230.238 167.561C229.653 173.174 227.527 178.515 224.095 182.994C223.242 184.109 222.322 185.17 221.34 186.172C220.322 187.139 219.247 188.045 218.123 188.886C215.883 190.591 213.411 191.969 210.783 192.978C208.156 194.007 205.398 194.664 202.589 194.929C201.182 195.061 199.767 195.088 198.356 195.009C196.943 194.976 195.534 194.832 194.144 194.577C188.523 193.545 183.301 190.969 179.063 187.137L179.425 187.247L164.213 189.59L163.117 189.791L163.67 188.786L171.251 175.585V176.107C169.472 171.783 168.703 167.11 169.002 162.443C169.302 157.777 170.661 153.24 172.978 149.178C175.295 145.116 178.508 141.637 182.372 139.004C186.237 136.371 190.651 134.654 195.278 133.983C199.906 133.313 204.626 133.708 209.078 135.136C213.531 136.565 217.599 138.991 220.973 142.228C224.346 145.466 226.937 149.431 228.548 153.821C230.159 158.21 230.747 162.91 230.268 167.561H230.238ZM230.238 167.561C230.715 162.979 230.137 158.349 228.546 154.025C226.956 149.702 224.397 145.8 221.064 142.619C217.732 139.438 213.715 137.062 209.322 135.675C204.93 134.287 200.277 133.925 195.722 134.614C191.206 135.288 186.903 136.987 183.145 139.581C179.428 142.197 176.32 145.585 174.036 149.514C171.788 153.464 170.461 157.87 170.155 162.404C169.874 166.947 170.612 171.495 172.316 175.715L172.427 175.987L172.276 176.228L164.615 189.369L164.072 188.564L179.314 186.433H179.525L179.676 186.574C183.744 190.382 188.792 192.983 194.254 194.084C195.617 194.358 196.998 194.526 198.387 194.587C199.772 194.682 201.163 194.682 202.549 194.587C205.331 194.374 208.069 193.772 210.683 192.797C213.31 191.848 215.783 190.516 218.022 188.846C219.144 188.012 220.218 187.116 221.24 186.161C222.225 185.17 223.148 184.119 224.004 183.015C227.474 178.54 229.632 173.19 230.238 167.561Z" fill="#263238"/>
<path d="M216.936 165.319C216.938 166.05 216.724 166.764 216.319 167.372C215.915 167.98 215.34 168.455 214.666 168.735C213.991 169.016 213.249 169.091 212.533 168.95C211.816 168.808 211.158 168.458 210.641 167.942C210.124 167.426 209.771 166.769 209.628 166.053C209.485 165.337 209.558 164.594 209.837 163.92C210.116 163.245 210.588 162.668 211.195 162.262C211.802 161.856 212.516 161.64 213.246 161.64C213.731 161.638 214.21 161.732 214.658 161.917C215.105 162.101 215.512 162.372 215.855 162.714C216.198 163.056 216.47 163.462 216.655 163.909C216.841 164.356 216.936 164.835 216.936 165.319Z" fill="#263238"/>
<path d="M203.725 165.319C203.727 166.05 203.512 166.765 203.108 167.373C202.703 167.981 202.127 168.456 201.452 168.736C200.778 169.017 200.035 169.091 199.318 168.949C198.601 168.807 197.943 168.455 197.426 167.938C196.91 167.422 196.558 166.763 196.416 166.047C196.274 165.33 196.348 164.587 196.629 163.913C196.909 163.238 197.384 162.662 197.992 162.257C198.6 161.853 199.315 161.638 200.046 161.64C201.022 161.64 201.958 162.027 202.648 162.717C203.338 163.407 203.725 164.343 203.725 165.319Z" fill="#263238"/>
<path d="M190.524 165.319C190.526 166.05 190.312 166.764 189.907 167.372C189.503 167.98 188.928 168.455 188.254 168.735C187.58 169.016 186.837 169.091 186.121 168.95C185.405 168.808 184.746 168.458 184.229 167.942C183.712 167.426 183.36 166.769 183.216 166.053C183.073 165.337 183.146 164.594 183.425 163.92C183.704 163.245 184.177 162.668 184.784 162.262C185.391 161.856 186.104 161.64 186.835 161.64C187.811 161.64 188.748 162.027 189.44 162.717C190.132 163.407 190.522 164.342 190.524 165.319Z" fill="#263238"/>
</svg>
